<svg version="1.1" viewBox="0 0 20 20" xmlns="http://www.w3.org/2000/svg" xmlns:xlink="http://www.w3.org/1999/xlink">
    <path
        d="M13.887 12.81a.726.726 0 0 1-.215.52l-1.426 1.427a.727.727 0 0 1-.522.215H6.187c-.046 0-.077-.03-.077-.076v-1.703c0-.045.03-.076.077-.076h5.476c.2 0 .368-.17.368-.37v-1.855c0-.2-.168-.367-.368-.367H6.187c-.046 0-.077-.031-.077-.063v-6.15c0-.046.03-.077.077-.077h6.887c.03 0 .077.03.077.077v1.702c0 .046-.046.077-.077.077H8.043a.073.073 0 0 0-.077.076v2.44c0 .03.03.076.077.076h3.68c.2 0 .385.076.523.215l1.426 1.412a.752.752 0 0 1 .215.52v1.98zM17.527 0H2.474L0 2.47v15.059l2.47 2.47h15.06L20 17.53V2.472L17.528 0z"
    />
    <path
        fill="transparent"
        d="M12.246 8.898a.73.73 0 0 0-.522-.215H8.043c-.047 0-.077-.046-.077-.076v-2.44c0-.044.03-.076.077-.076h5.031c.03 0 .076-.031.076-.077V4.312c0-.046-.046-.077-.076-.077H6.186c-.045 0-.076.03-.076.077v6.15c0 .032.031.063.076.063h5.477c.199 0 .368.167.368.367v1.857a.374.374 0 0 1-.368.368H6.186a.072.072 0 0 0-.076.076v1.703c0 .046.031.076.076.076h5.538a.73.73 0 0 0 .522-.215l1.426-1.425a.734.734 0 0 0 .215-.522v-1.98a.757.757 0 0 0-.215-.52l-1.426-1.412z"
    />
</svg>