<svg version="1.1" viewBox="0 0 20 20" xmlns="http://www.w3.org/2000/svg" xmlns:xlink="http://www.w3.org/1999/xlink">
    <path
        d="M13.884 8.47a.36.36 0 0 1-.184.322l-5.705 3.71c-.031.016-.031.046-.031.063v.475c0 .045.03.076.078.076h5.765c.046 0 .077.032.077.077v1.703c0 .045-.031.076-.077.076H6.185a.072.072 0 0 1-.076-.076v-3.252c0-.015.015-.046.03-.061l5.858-3.772c.016-.015.032-.031.032-.063V6.46c0-.2-.17-.368-.37-.368H6.186c-.045 0-.076-.03-.076-.076V4.315c0-.046.03-.077.076-.077h5.536c.2 0 .384.077.522.214l1.426 1.426a.733.733 0 0 1 .215.522v2.07zM17.527 0H2.473L0 2.47v15.059l2.47 2.47h15.06L20 17.53V2.472L17.527 0z"
    />
    <path
        fill="transparent"
        d="M12.243 4.452a.733.733 0 0 0-.522-.215H6.185a.073.073 0 0 0-.077.077v1.702c0 .046.031.077.077.077h5.475c.2 0 .368.168.368.368v1.287c0 .031-.015.048-.03.062l-5.859 3.773a.12.12 0 0 0-.03.06v3.252c0 .045.03.077.076.077h7.622a.074.074 0 0 0 .077-.077v-1.703c0-.045-.032-.076-.077-.076H8.041c-.046 0-.077-.03-.077-.076v-.476c0-.016 0-.047.031-.06L13.7 8.791a.361.361 0 0 0 .184-.322V6.4a.73.73 0 0 0-.215-.522l-1.426-1.426z"
    />
</svg>