<svg version="1.1" viewBox="0 0 20 20" xmlns="http://www.w3.org/2000/svg" xmlns:xlink="http://www.w3.org/1999/xlink">
    <path
        d="m17.5 0 2.5 2.5v15.1l-2.5 2.4h-15l-2.5-2.5v-15l2.5-2.5zm-1.5 4.2h-3.5c-.2 0-.4.1-.5.2l-1.4 1.4c-.1.1-.2.3-.2.5v6.4c0 .2.1.4.2.5l1.4 1.4c.1.1.3.2.5.2h3.5c.2 0 .4-.1.5-.2l1.4-1.4c.1-.1.2-.3.2-.5v-6.3c0-.2-.1-.4-.2-.5l-1.4-1.4c-.1-.2-.3-.3-.5-.3zm-11.5 0h-2.6s-.1 0-.1.1v1.7s0 .1.1.1h2.5c.2 0 .4.2.4.4v6.5s0 .1-.1.1h-2.8s-.1 0-.1.1v1.7s0 .1.1.1h7.6s.1 0 .1-.1v-1.7s0-.1-.1-.1h-2.8s-.1 0-.1-.1v-6.6c0-.2-.1-.4-.2-.5l-1.4-1.5c-.1-.1-.3-.2-.5-.2zm11.4 1.9c.2 0 .4.2.4.4v6.3c0 .2-.2.4-.4.4h-3.3c-.2 0-.4-.2-.4-.4v-6.3c0-.2.2-.4.4-.4z"
    />
    <path
        fill="transparent"
        d="m16 4.2c.2 0 .4.1.5.2l1.4 1.4c.1.1.2.3.2.5v6.4c0 .2-.1.4-.2.5l-1.4 1.4c-.1.3-.3.4-.5.4h-3.5c-.2 0-.4-.1-.5-.2l-1.4-1.4c-.1-.1-.2-.3-.2-.5v-6.5c0-.2.1-.4.2-.5l1.4-1.5c.1-.1.3-.2.5-.2zm-11.5 0c.2 0 .4.1.5.2l1.4 1.4c.2.2.3.4.3.6v6.6s0 .1.1.1h2.8s.1 0 .1.1v1.7s0 .1-.1.1h-7.7s-.1 0-.1-.1v-1.7s0-.1.1-.1h2.8s.1 0 .1-.1v-6.5c0-.2-.2-.4-.4-.4h-2.5s-.1 0-.1-.1v-1.7s0-.1.1-.1zm11.4 1.9h-3.3c-.2 0-.4.2-.4.4v6.3c0 .2.2.4.4.4h3.3c.2 0 .4-.2.4-.4v-6.3c0-.2-.2-.4-.4-.4z"
    />
</svg>