<svg version="1.1" viewBox="0 0 20 20" xmlns="http://www.w3.org/2000/svg" xmlns:xlink="http://www.w3.org/1999/xlink">
    <path
        d="M17.528 0L20 2.472v15.057L17.531 20H2.47L0 17.529V2.47L2.473 0h15.055zm-1.53 4.235h-3.451c-.199 0-.384.077-.522.215l-1.426 1.426c-.139.138-.215.323-.215.521v6.413c0 .199.076.383.215.521l1.426 1.426c.138.139.323.215.522.215h3.451c.2 0 .384-.076.522-.215l1.426-1.426c.139-.138.215-.322.215-.521V6.397c0-.198-.076-.383-.215-.521L16.52 4.45c-.138-.138-.322-.215-.522-.215zm-11.508 0H1.913c-.045 0-.077.031-.077.077v1.702c0 .046.032.077.077.077h2.516c.2 0 .368.168.368.368v6.58c0 .046-.031.078-.076.078H1.913c-.045 0-.077.031-.077.076v1.703c0 .046.032.076.077.076h7.624c.046 0 .077-.03.077-.076v-1.703c0-.045-.031-.076-.077-.076H6.73c-.046 0-.077-.032-.077-.078V6.397c0-.198-.076-.383-.215-.521L5.012 4.45c-.138-.138-.322-.215-.522-.215zm11.447 1.856c.2 0 .368.168.368.368v6.29c0 .197-.169.367-.368.367h-3.329c-.214 0-.368-.17-.368-.368V6.46c0-.2.154-.368.368-.368z"
        transform="translate(-560.000000, -1769.000000) translate(559.999900, 1768.999800)"
    />
    <path
        fill="transparent"
        d="M15.998 4.234c.2 0 .384.077.522.215l1.426 1.427c.14.138.215.322.215.52v6.414c0 .2-.076.382-.215.521l-1.426 1.426c-.138.138-.322.215-.522.215h-3.45c-.2 0-.385-.077-.523-.215L10.6 13.331c-.139-.139-.215-.322-.215-.52V6.395c0-.198.076-.382.215-.52l1.426-1.427c.138-.138.322-.215.522-.215zm-11.508 0c.2 0 .384.078.522.216l1.426 1.427c.139.137.215.322.215.52v6.643c0 .046.03.077.077.077h2.808c.045 0 .076.03.076.076v1.703c0 .046-.031.076-.076.076H1.913c-.045 0-.077-.03-.077-.076v-1.703c0-.045.032-.076.077-.076H4.72c.046 0 .076-.031.076-.077V6.46c0-.2-.168-.368-.368-.368H1.913c-.045 0-.077-.032-.077-.078V4.312c0-.046.032-.077.077-.077zm11.447 1.857H12.61c-.215 0-.369.168-.369.368v6.29c0 .197.154.367.37.367h3.327c.2 0 .368-.17.368-.368V6.46c0-.2-.168-.368-.368-.368z"
        transform="translate(-560.000000, -1769.000000) translate(559.999900, 1768.999800)"
    />
</svg>