<svg version="1.1" viewBox="0 0 20 20" xmlns="http://www.w3.org/2000/svg" xmlns:xlink="http://www.w3.org/1999/xlink">
    <path
        d="M12.88 0v1.374h-2.418v2.145a8.167 8.167 0 0 1 3.626 1.176l1.533-2.016 1.094.83-1.525 2.008c1.738 1.518 2.861 3.724 2.861 6.208 0 4.562-3.713 8.275-8.276 8.275S1.5 16.287 1.5 11.725c0-4.328 3.351-7.851 7.588-8.206V1.374H6.671V0h6.209zM9.775 4.823c-3.805 0-6.901 3.097-6.901 6.902a6.91 6.91 0 0 0 6.901 6.901 6.908 6.908 0 0 0 6.901-6.901c0-3.805-3.095-6.902-6.901-6.902zm.684 1.384v5.517H9.095V6.207h1.366z"
    />
</svg>