<svg version="1.1" viewBox="0 0 20 20" xmlns="http://www.w3.org/2000/svg" xmlns:xlink="http://www.w3.org/1999/xlink">
    <path
        d="M18.7371,4.2131 L17.4301,7.3681 C16.3871,4.2251 13.4281,2.0001 9.9991,2.0001 C6.6971,2.0001 3.7311,4.0861 2.6181,7.1931 L3.9041,7.6531 C4.8241,5.0891 7.2731,3.3671 9.9991,3.3671 C12.8881,3.3671 15.3741,5.2781 16.1851,7.9591 L12.9381,6.6151 L12.4161,7.8771 L17.7791,10.0981 L20.0001,4.7361 L18.7371,4.2131 Z"
        id="Fill-1"
        fill="#DC0000"
    />
    <path
        d="M10.0022,16.3088 C7.1122,16.3088 4.6262,14.3968 3.8152,11.7168 L7.0622,13.0628 L7.5852,11.7998 L2.2222,9.5788 L2.2212,9.5788 L1.9022,10.3488 L1.6982,10.8398 L1.6992,10.8398 L0.0002,14.9418 L1.2622,15.4648 L2.5702,12.3088 C3.6132,15.4528 6.5722,17.6758 10.0022,17.6758 C13.3032,17.6758 16.2692,15.5888 17.3812,12.4828 L16.0952,12.0228 C15.1762,14.5858 12.7282,16.3088 10.0022,16.3088"
        id="Fill-4"
        fill="#14DC4B"
    />
</svg>