<svg id="suspended" viewBox="0 0 20 20">
    <path
        d="m10 18.6080847c-2.13012931 0-4.0769779-.7819977-5.5819163-2.0669993l12.0812545-12.16984011c1.3104571 1.51104776 2.1097647 3.47622442 2.1097647 5.62773648 0 4.74697083-3.8621321 8.60910293-8.6091029 8.60910293m0-17.21820587c2.0955096 0 4.0158843.75348743 5.5106405 2.00285103l-12.07514513 12.16271254c-1.27278282-1.5018837-2.04459831-3.43855-2.04459831-5.55646063 0-4.74697077 3.86213216-8.60910294 8.60910294-8.60910294m0-1.38987883c-5.51471337 0-10 4.48528663-10 9.99898177 0 5.51369513 4.48528663 9.99898173 10 9.99898173 5.5136951 0 10-4.4852866 10-9.99898173 0-5.51369514-4.4863049-9.99898177-10-9.99898177"
    />
</svg>