<svg version="1.1" viewBox="0 0 20 13.1" xmlns="http://www.w3.org/2000/svg" xmlns:xlink="http://www.w3.org/1999/xlink">
    <path
            d="m17.5 0 2.5 2.5v8.2l-2.5 2.5h-15l-2.5-2.6v-8.1l2.5-2.5zm-.5 1.4h-14l-1.6 1.6v7l1.6 1.7h14l1.7-1.7v-7zm-13.8 2.3c.1 0 .1 0 0 0l1.1 4.6h.5l1-4.6h1l-1.1 5.6h-2.1l-1.4-5.6zm7.8 0c.1 0 .2 0 .3.1l.7.8c.1.1.1.2.1.3v4.4h-.9v-1.7c0-.1-.1-.2-.2-.2h-2.5c-.1 0-.2.1-.2.2v1.7h-1v-4.5c0-.1 0-.2.1-.3l.7-.7c.1-.1.2-.1.3-.1zm5.6 0c.1 0 .2 0 .3.1l.7.7c.1.1.1.2.1.3v1c0 .1 0 .2-.1.3l-.7.7c-.1.1-.2.2-.3.2h-.2l1.3 2.3h-1.1l-1.3-2.3h-1.2c-.1 0-.2.1-.2.2v2.1h-.9v-5.6zm-5.6 1h-2.5c-.1 0-.2.1-.2.2v1.4c0 .1.1.2.2.2h2.5c.1 0 .2-.1.2-.2v-1.4c0-.2-.1-.2-.2-.2zm5.6 0h-2.5c-.1 0-.2.1-.2.2v1s.1.1.2.1h2.5c.1 0 .2-.1.2-.2v-1c0-.1-.1-.1-.2-.1z"
        />
</svg>