<svg version="1.1" viewBox="0 0 20 20" xmlns="http://www.w3.org/2000/svg" xmlns:xlink="http://www.w3.org/1999/xlink">
    <path
        d="m2 5.1 1.7 1.7c.9-.8 2.1-1.3 3.4-1.3 1.2 0 2.4.5 3.5 1.5l.4.5.3.3.5.5.2.2.6.6.2.2.8.8.2.2.9.9.2.2.4.4 1.6 1.6.4.4.2.2.5.5 1.5 1.6.1.1-3.7 3.8h-3.2l-4.1-4c-1 1-2.3 1.5-3.7 1.5-1.3 0-2.6-.5-3.5-1.5-1.9-2-2-4.8-.2-6.8l.4-.4-1.6-1.7zm5.1 1.8c-1 0-2 .4-2.7 1.1l-2.1 2.1c-1.3 1.4-1.2 3.4.2 4.9.6.7 1.5 1.1 2.5 1.1s2-.4 2.7-1.1h1.9l3.7 3.6h2.1l2.5-2.5-6-6-3 3-1.9-1.9 3-3-.4-.3c-.9-.8-1.9-1-2.5-1zm12.4-1.1.5 1.2-4.9 2-.5-1.3c0 .1 4.9-1.9 4.9-1.9zm-2.6-3.6 1 1-3.7 3.7-1-1c-.1 0 3.7-3.7 3.7-3.7zm-3.9-2.2 1.3.5-2 4.9-1.3-.5z"
    />
</svg>