<svg xmlns="http://www.w3.org/2000/svg" xmlns:xlink="http://www.w3.org/1999/xlink" version="1.1">

    <style type="text/css">
        <![CDATA[
            svg > svg:not(:target) {display: none;}
        ]]>
    </style>

	<!--
	DEFINITIONS FOR SYMBOLS
	DEF AND SYMBOL IDS MUST BE UNIQUE!
	-->
    <defs>
        <g id="soccerJersey">
            <path d="M31.135 0l8.025 4.47L44 12.42l-4.84 4.36-3.035-2.239V30H13.86l-.001-15.447-3.018 2.227L6 12.42l4.84-7.95L18.755.061c1.345 1.596 3.429 2.394 6.25 2.394 3.15 0 5.072-1.343 6.13-2.456z" transform="translate(-535.000000, -683.000000) translate(0.000000, 370.000000) translate(12.000000, 125.000000) translate(354.000000, 39.000000) translate(163.000000, 149.000000)"/>
        </g>
        <g id="hockeyJersey">
            <path d="M31.056 6l9.67 4.271 3.095 14.21L44 36.76h-6.502l-1.204-14.714-.758-.846-.182 15.56h-20.29l-.465-15.712-.893.998-1.204 14.714H6l.107-12.28 3.095-14.21 9.55-4.244c1.376 1.527 3.457 2.29 6.241 2.29 3.03 0 4.948-1.221 6.063-2.316z" transform="translate(-401.000000, -688.000000) translate(390.000000, 564.000000) translate(5.000000, 118.000000)"/>
        </g>
        <g id="basketballJersey">
            <path d="M25.632.003l4.634 1.751s-1.149 1.728-1.149 5.856c0 4.13 2.062 5.46 2.062 5.46V30H9V13.101s2.262-1.393 2.262-5.49c0-3.817-1.149-5.604-1.307-5.831h-.018l.015-.005-.015-.02.068-.001 4.556-1.75.071.33c.924 4.122 2.73 6.184 5.418 6.184 4.054 0 5.522-6.249 5.582-6.515z" transform="translate(-258.000000, -567.000000) translate(0.000000, 322.000000) translate(12.000000, 89.000000) translate(85.000000, 156.001802) translate(152.000000, 0.000000)"/>
        </g>
        <g id="soccerField" fill="none" fill-rule="evenodd">
            <path stroke="#0F2D37" stroke-width="2" d="M1 1h362v590H1V1zM0 296L364 296" transform="translate(-48.000000, -523.000000) translate(0.000000, 370.000000) translate(12.000000, 125.000000) translate(332.000000, 210.000000) rotate(-90.000000) translate(-332.000000, -210.000000) translate(150.000000, -86.000000)"/>
            <path stroke="#0F2D37" stroke-width="2" d="M73 591L73 496 291 496 291 591" transform="translate(-48.000000, -523.000000) translate(0.000000, 370.000000) translate(12.000000, 125.000000) translate(332.000000, 210.000000) rotate(-90.000000) translate(-332.000000, -210.000000) translate(150.000000, -86.000000)"/>
            <path stroke="#0F2D37" stroke-width="2" d="M131 592L131 559 233 559 233 592M131 0L131 32 233 32 233 0" transform="translate(-48.000000, -523.000000) translate(0.000000, 370.000000) translate(12.000000, 125.000000) translate(332.000000, 210.000000) rotate(-90.000000) translate(-332.000000, -210.000000) translate(150.000000, -86.000000)"/>
            <path stroke="#0F2D37" stroke-width="2" d="M73 0L73 95 291 95 291 0M232 296c0 27.615-22.386 50-50 50s-50-22.385-50-50 22.386-50 50-50 50 22.385 50 50zM222 95c-8.65 12.686-23.115 21-39.499 21-16.386 0-30.85-8.314-39.501-21M222 496c-8.65-12.686-23.115-21-39.499-21-16.386 0-30.85 8.314-39.501 21M355 592c0-4.97 4.03-9 9-9M9 592c0-4.97-4.029-9-9-9M355 0c0 4.97 4.03 9 9 9M9 0c0 4.97-4.029 9-9 9" transform="translate(-48.000000, -523.000000) translate(0.000000, 370.000000) translate(12.000000, 125.000000) translate(332.000000, 210.000000) rotate(-90.000000) translate(-332.000000, -210.000000) translate(150.000000, -86.000000)"/>
            <path fill="#0F2D37" d="M185 296c0 1.656-1.344 3-3 3s-3-1.344-3-3c0-1.657 1.344-3 3-3s3 1.343 3 3" transform="translate(-48.000000, -523.000000) translate(0.000000, 370.000000) translate(12.000000, 125.000000) translate(332.000000, 210.000000) rotate(-90.000000) translate(-332.000000, -210.000000) translate(150.000000, -86.000000)"/>
        </g>
        <g id="hockeyField" fill="none" fill-rule="evenodd">
            <path stroke="#C8CDCD" stroke-width="2" d="M287.544 1c21.105 0 40.208 9.2 54.038 24.063C355.436 39.953 364 60.523 364 83.243h0v425.512c0 22.72-8.564 43.292-22.419 58.182C327.751 581.8 308.65 591 287.544 591h0H77.455c-21.105 0-40.208-9.2-54.037-24.063C9.564 552.047 1 531.475 1 508.755h0V83.244c0-22.72 8.564-43.292 22.418-58.182C37.247 10.2 56.35 1 77.455 1h0zM0 296.5L364 296.5M14 556L350 556M0 383L365 383" transform="translate(-48.000000, -519.000000) translate(0.000000, 322.000000) translate(12.000000, 169.000000) translate(332.000000, 210.500000) rotate(-270.000000) translate(-332.000000, -210.500000) translate(149.500000, -85.500000)"/>
            <path stroke="#C8CDCD" stroke-width="2" d="M160 557c0-12.15 9.85-22 22-22s22 9.85 22 22" transform="translate(-48.000000, -519.000000) translate(0.000000, 322.000000) translate(12.000000, 169.000000) translate(332.000000, 210.500000) rotate(-270.000000) translate(-332.000000, -210.500000) translate(149.500000, -85.500000)"/>
            <g>
                <path stroke="#C8CDCD" stroke-width="2" d="M35 34L44 34 44 25M59 34L50 34 50 25M35 46L44 46 44 55M59 46L50 46 50 55" transform="translate(-48.000000, -519.000000) translate(0.000000, 322.000000) translate(12.000000, 169.000000) translate(332.000000, 210.500000) rotate(-270.000000) translate(-332.000000, -210.500000) translate(149.500000, -85.500000) translate(24.000000, 440.000000)"/>
                <path stroke="#C8CDCD" stroke-width="2" d="M87 40c0 22.091-17.908 40-40 40C24.91 80 7 62.091 7 40S24.909 0 47 0c22.092 0 40 17.909 40 40zM87 32L95 32M87 48L95 48M0 32L8 32M0 48L8 48" transform="translate(-48.000000, -519.000000) translate(0.000000, 322.000000) translate(12.000000, 169.000000) translate(332.000000, 210.500000) rotate(-270.000000) translate(-332.000000, -210.500000) translate(149.500000, -85.500000) translate(24.000000, 440.000000)"/>
                <path fill="#C8CDCD" d="M50 40c0 1.657-1.343 3-3 3s-3-1.343-3-3 1.343-3 3-3 3 1.343 3 3" transform="translate(-48.000000, -519.000000) translate(0.000000, 322.000000) translate(12.000000, 169.000000) translate(332.000000, 210.500000) rotate(-270.000000) translate(-332.000000, -210.500000) translate(149.500000, -85.500000) translate(24.000000, 440.000000)"/>
            </g>
            <g>
                <path stroke="#C8CDCD" stroke-width="2" d="M35 34L44 34 44 25M59 34L50 34 50 25M35 46L44 46 44 55M59 46L50 46 50 55" transform="translate(-48.000000, -519.000000) translate(0.000000, 322.000000) translate(12.000000, 169.000000) translate(332.000000, 210.500000) rotate(-270.000000) translate(-332.000000, -210.500000) translate(149.500000, -85.500000) translate(24.000000, 72.000000)"/>
                <path stroke="#C8CDCD" stroke-width="2" d="M87 40c0 22.091-17.908 40-40 40C24.91 80 7 62.091 7 40S24.909 0 47 0c22.092 0 40 17.909 40 40zM87 32L95 32M87 48L95 48M0 32L8 32M0 48L8 48" transform="translate(-48.000000, -519.000000) translate(0.000000, 322.000000) translate(12.000000, 169.000000) translate(332.000000, 210.500000) rotate(-270.000000) translate(-332.000000, -210.500000) translate(149.500000, -85.500000) translate(24.000000, 72.000000)"/>
                <path fill="#C8CDCD" d="M50 40c0 1.657-1.343 3-3 3s-3-1.343-3-3 1.343-3 3-3 3 1.343 3 3" transform="translate(-48.000000, -519.000000) translate(0.000000, 322.000000) translate(12.000000, 169.000000) translate(332.000000, 210.500000) rotate(-270.000000) translate(-332.000000, -210.500000) translate(149.500000, -85.500000) translate(24.000000, 72.000000)"/>
            </g>
            <g>
                <path stroke="#C8CDCD" stroke-width="2" d="M35 34L44 34 44 25M59 34L50 34 50 25M35 46L44 46 44 55M59 46L50 46 50 55" transform="translate(-48.000000, -519.000000) translate(0.000000, 322.000000) translate(12.000000, 169.000000) translate(332.000000, 210.500000) rotate(-270.000000) translate(-332.000000, -210.500000) translate(149.500000, -85.500000) translate(246.000000, 440.000000)"/>
                <path stroke="#C8CDCD" stroke-width="2" d="M87 40c0 22.091-17.908 40-40 40C24.91 80 7 62.091 7 40S24.909 0 47 0c22.092 0 40 17.909 40 40zM87 32L95 32M87 48L95 48M0 32L8 32M0 48L8 48" transform="translate(-48.000000, -519.000000) translate(0.000000, 322.000000) translate(12.000000, 169.000000) translate(332.000000, 210.500000) rotate(-270.000000) translate(-332.000000, -210.500000) translate(149.500000, -85.500000) translate(246.000000, 440.000000)"/>
                <path fill="#C8CDCD" d="M50 40c0 1.657-1.343 3-3 3s-3-1.343-3-3 1.343-3 3-3 3 1.343 3 3" transform="translate(-48.000000, -519.000000) translate(0.000000, 322.000000) translate(12.000000, 169.000000) translate(332.000000, 210.500000) rotate(-270.000000) translate(-332.000000, -210.500000) translate(149.500000, -85.500000) translate(246.000000, 440.000000)"/>
            </g>
            <g>
                <path stroke="#C8CDCD" stroke-width="2" d="M35 34L44 34 44 25M59 34L50 34 50 25M35 46L44 46 44 55M59 46L50 46 50 55" transform="translate(-48.000000, -519.000000) translate(0.000000, 322.000000) translate(12.000000, 169.000000) translate(332.000000, 210.500000) rotate(-270.000000) translate(-332.000000, -210.500000) translate(149.500000, -85.500000) translate(246.000000, 72.000000)"/>
                <path stroke="#C8CDCD" stroke-width="2" d="M87 40c0 22.091-17.908 40-40 40C24.91 80 7 62.091 7 40S24.909 0 47 0c22.092 0 40 17.909 40 40zM87 32L95 32M87 48L95 48M0 32L8 32M0 48L8 48" transform="translate(-48.000000, -519.000000) translate(0.000000, 322.000000) translate(12.000000, 169.000000) translate(332.000000, 210.500000) rotate(-270.000000) translate(-332.000000, -210.500000) translate(149.500000, -85.500000) translate(246.000000, 72.000000)"/>
                <path fill="#C8CDCD" d="M50 40c0 1.657-1.343 3-3 3s-3-1.343-3-3 1.343-3 3-3 3 1.343 3 3" transform="translate(-48.000000, -519.000000) translate(0.000000, 322.000000) translate(12.000000, 169.000000) translate(332.000000, 210.500000) rotate(-270.000000) translate(-332.000000, -210.500000) translate(149.500000, -85.500000) translate(246.000000, 72.000000)"/>
            </g>
            <path stroke="#C8CDCD" stroke-width="2" d="M15 36L349 36M0 209L365 209M160 35c0 12.15 9.85 22 22 22s22-9.85 22-22M221 296c0 21.539-17.46 39-39 39-21.539 0-39-17.461-39-39s17.461-39 39-39c21.54 0 39 17.461 39 39zM364 325c-16.017 0-29-12.984-29-29s12.983-29 29-29" transform="translate(-48.000000, -519.000000) translate(0.000000, 322.000000) translate(12.000000, 169.000000) translate(332.000000, 210.500000) rotate(-270.000000) translate(-332.000000, -210.500000) translate(149.500000, -85.500000)"/>
            <path fill="#C8CDCD" d="M100 360c0 1.657-1.343 3-3 3s-3-1.343-3-3 1.343-3 3-3 3 1.343 3 3M270 360c0 1.657-1.343 3-3 3s-3-1.343-3-3 1.343-3 3-3 3 1.343 3 3M100 232c0-1.657-1.343-3-3-3s-3 1.343-3 3 1.343 3 3 3 3-1.343 3-3M270 232c0-1.657-1.343-3-3-3s-3 1.343-3 3 1.343 3 3 3 3-1.343 3-3" transform="translate(-48.000000, -519.000000) translate(0.000000, 322.000000) translate(12.000000, 169.000000) translate(332.000000, 210.500000) rotate(-270.000000) translate(-332.000000, -210.500000) translate(149.500000, -85.500000)"/>
        </g>
        <g id="basketballField" fill="none" fill-rule="evenodd" transform="translate(-48.000000, -475.000000) translate(0.000000, 322.000000) translate(12.000000, 89.000000) translate(332.000000, 246.500000) rotate(-270.000000) translate(-332.000000, -246.500000) translate(149.500000, -49.500000)">
            <path stroke="#0F2D37" stroke-width="2" d="M1 1H364V591H1z"/>
            <g transform="translate(1.703128, 0.000000)">
                <path stroke="#0F2D37" stroke-width="2" d="M341.475 1v100.664c-17.356 35.064-39.457 61.382-66.324 78.932-26.902 17.574-58.576 26.35-95.017 26.35-36.438 0-68.002-8.775-94.683-26.348-26.646-17.55-48.416-43.866-65.332-78.93h0V1h321.356z"/>
                <path stroke="#0F2D37" stroke-width="2" d="M125.455 1H237.364V134.045H125.455z"/>
                <path stroke="#0F2D37" stroke-width="2" d="M140.153 1H222.666V134.045H140.153z"/>
                <path stroke="#0F2D37" stroke-width="2" d="M210.418 26.781v16.002c-2.795 7.22-6.623 12.657-11.517 16.283-4.905 3.635-10.874 5.437-17.896 5.437-7.025 0-13.03-1.804-18.005-5.44-4.963-3.628-8.894-9.066-11.824-16.288h0V26.78h59.242zM237.617 48.285L243.18 48.285M237.617 56.879L243.18 56.879M237.617 78.977L243.18 78.977M237.617 102.303L243.18 102.303M118.809 48.285L124.371 48.285M118.809 56.879L124.371 56.879M118.809 78.977L124.371 78.977M118.809 102.303L124.371 102.303M0 179.647L15.361 179.647M346.628 179.647L361.989 179.647M140.377 133.817c0 18.307 14.907 40.513 41.058 40.513s41.057-22.375 41.057-40.513"/>
                <path stroke="#0F2D37" stroke-dasharray="10 10" stroke-width="2" d="M140.377 132.59c.543-14.125 12.186-40.514 41.058-40.514s41.057 25.737 41.057 40.513"/>
                <path fill="#0F2D37" d="M150.176 22.098H211.41799999999998V25.781H150.176z"/>
                <ellipse cx="180.797" cy="36.83" stroke="#0F2D37" stroke-width="2" rx="7.349" ry="7.366"/>
            </g>
            <g>
                <path stroke="#0F2D37" stroke-width="2.5" d="M20.369 1.25h320.856v100.355c-17.33 34.993-39.39 61.262-66.21 78.782-26.864 17.548-58.493 26.309-94.88 26.309-36.386 0-67.904-8.76-94.546-26.306-26.599-17.519-48.33-43.787-65.22-78.778h0V1.25z" transform="translate(182.697380, 308.890625) scale(1, -1) translate(-182.697380, -308.890625) translate(1.703128, 25.781250)"/>
                <path stroke="#0F2D37" stroke-width="2.5" d="M125.705 1.25H237.114V133.795H125.705z" transform="translate(182.697380, 308.890625) scale(1, -1) translate(-182.697380, -308.890625) translate(1.703128, 25.781250)"/>
                <path stroke="#0F2D37" stroke-width="2.5" d="M140.403 1.25H222.416V133.795H140.403z" transform="translate(182.697380, 308.890625) scale(1, -1) translate(-182.697380, -308.890625) translate(1.703128, 25.781250)"/>
                <path stroke="#0F2D37" stroke-width="2.5" d="M210.168 27.031v15.705c-2.773 7.148-6.565 12.535-11.416 16.13-4.864 3.604-10.784 5.387-17.747 5.387-6.966 0-12.923-1.786-17.857-5.392-4.92-3.596-8.814-8.985-11.722-16.135h0V27.03h58.742z" transform="translate(182.697380, 308.890625) scale(1, -1) translate(-182.697380, -308.890625) translate(1.703128, 25.781250)"/>
                <path stroke="#0F2D37" stroke-width="2" d="M237.617 48.285L243.18 48.285M237.617 56.879L243.18 56.879M237.617 78.977L243.18 78.977M237.617 102.303L243.18 102.303M118.809 48.285L124.371 48.285M118.809 56.879L124.371 56.879M118.809 78.977L124.371 78.977M118.809 102.303L124.371 102.303M0 179.647L15.361 179.647M346.628 179.647L361.989 179.647M140.377 133.768c0 18.307 14.907 40.514 41.058 40.514s41.057-22.375 41.057-40.514" transform="translate(182.697380, 308.890625) scale(1, -1) translate(-182.697380, -308.890625) translate(1.703128, 25.781250)"/>
                <path stroke="#0F2D37" stroke-dasharray="10 10" stroke-width="2" d="M140.377 132.54c.543-14.123 12.186-40.513 41.058-40.513s41.057 25.737 41.057 40.514" transform="translate(182.697380, 308.890625) scale(1, -1) translate(-182.697380, -308.890625) translate(1.703128, 25.781250)"/>
                <g transform="translate(182.697380, 308.890625) scale(1, -1) translate(-182.697380, -308.890625) translate(1.703128, 25.781250) translate(150.176066, 22.098214)">
                    <path fill="#0F2D37" d="M0 0H61.242V3.683H0zM29.396 3.683H31.846V7.366H29.396z"/>
                    <ellipse cx="30.621" cy="14.732" stroke="#0F2D37" stroke-width="2" rx="7.349" ry="7.366"/>
                </g>
                <g fill="#0F2D37">
                    <path d="M0 0H2.45V3.683H0z" transform="translate(182.697380, 308.890625) scale(1, -1) translate(-182.697380, -308.890625) translate(1.703128, 25.781250) translate(180.796872, 564.377232) scale(1, -1) translate(-180.796872, -564.377232) translate(179.572039, 562.535714)"/>
                </g>
            </g>
            <path stroke="#0F2D37" stroke-width="2" d="M1 296.5L364 296.5"/>
            <circle cx="182" cy="297" r="49" stroke="#0F2D37" stroke-width="2"/>
            <circle cx="181.5" cy="296.5" r="19.5" stroke="#0F2D37" stroke-width="2"/>
        </g>
        <g id="reportPlaceholder" fill="#999" fill-rule="evenodd">
            <path d="M35.456 0l4.543 4.539v30.922L35.456 40H4.543L0 35.461V19.3h8.261V4.539L12.805 0h22.651zm-.566 1.366H13.371L9.629 5.105v30.356l-3.176 3.172H34.89l3.742-3.739V5.105L34.89 1.366zm-26.629 19.3H1.368v14.228l3.446 3.444 3.447-3.444V20.666zM35.87 31.734v1.365H12.393v-1.365H35.87zm0-4.112v1.366H12.393v-1.366H35.87zm0-4.185v1.365H12.393v-1.365H35.87zm0-4.134v1.366H12.393v-1.366H35.87zM14.846 6.875c.062 0 .126.012.193.04.066.027.122.06.166.106l1.374 1.372c.044.045.079.1.106.167.027.067.04.13.04.194v6.049c0 .043.023.065.067.065h2.533c.045 0 .067.023.067.066v1.534c0 .044-.022.065-.067.065h-6.866c-.045 0-.067-.021-.067-.065v-1.534c0-.043.022-.066.067-.066h2.533c.044 0 .067-.022.067-.065v-5.93c0-.098-.032-.177-.093-.24-.063-.062-.143-.093-.241-.093h-2.266c-.045 0-.067-.022-.067-.067V6.942c0-.045.022-.067.067-.067zm20.966-.045v9.673H21.375V6.83h14.437zm-1.368 1.365H22.743v6.942h11.7V8.195z" transform="translate(-112.000000, -434.000000) translate(0.000000, 286.000000) translate(28.000000, 106.000000) translate(84.000000, 42.000000)"/>
        </g>
        <g id="streamIcon" fill="currentColor" fill-rule="evenodd">
            <path d="M1.976 1.6L0 3.577v5.977l1.978 1.977H7.45v1.662H1.654v1.099H14.35v-1.1H8.55v-1.66h5.473L16 9.553V3.577L14.025 1.6H1.976zM1.1 9.098V4.033l1.332-1.335h11.137L14.9 4.033v5.065l-1.333 1.333H2.433L1.1 9.098z" transform="translate(-24.000000, -929.000000) translate(0.000000, 415.000000) translate(12.000000, 470.000000) translate(12.000000, 44.000000) translate(0.000000, 0.000000)"/>
        </g>
        <g id="arrowSlim" fill="currentColor" fill-rule="evenodd">
            <path fill-rule="evenodd" clip-rule="evenodd" d="M0.6,6.4L7,0l6.4,6.4l-0.7,0.7L7.5,1.8V14H6.5V1.8L1.3,7.1 L0.6,6.4z"/>
        </g>
    </defs>

	<!--
	SYMBOLS
	DEF AND SYMBOL IDS MUST BE UNIQUE!
	-->
	<symbol id="leaderboard" viewBox="0 0 20 20">
        <path fill="currentColor" fill-rule="evenodd" d="M2.86 14.518c.102 0 .196.038.266.108l.727.73c.07.07.11.164.11.265v1.152c0 .008-.008.015-.016.024l-.43.43a.036.036 0 0 0 0 .055l.43.439c.008.008.015.015.015.023v1.151a.373.373 0 0 1-.109.267l-.727.729a.37.37 0 0 1-.266.11H.04a.037.037 0 0 1-.04-.04v-.87c0-.015.015-.039.04-.039h2.79a.185.185 0 0 0 .187-.189v-1.418c0-.03-.039-.046-.063-.023l-.305.299c-.008.008-.015.008-.023.008H.601c-.016 0-.038-.017-.038-.032v-.87c0-.023.022-.039.038-.039H2.83a.19.19 0 0 0 .188-.186v-.965a.189.189 0 0 0-.188-.173H.04c-.024 0-.039-.016-.039-.039v-.869c0-.023.015-.038.04-.038zM20 16.57v1.377H6.206V16.57H20zM2.86 7.316c.102 0 .196.04.266.11l.727.728c.07.071.11.165.11.267v1.057c0 .07-.032.125-.094.165L.961 11.538c-.016.008-.016.024-.016.032v.242c0 .023.016.04.04.04h2.938c.024 0 .04.015.04.038v.87c0 .023-.016.04-.04.04H.04c-.024 0-.039-.017-.039-.04V11.1c0-.008.007-.025.015-.032l2.986-1.927c.008-.008.016-.016.016-.03v-.66a.19.19 0 0 0-.188-.187H.04C.015 8.264 0 8.248 0 8.225v-.869c0-.024.015-.04.04-.04zM20 9.311v1.377H6.206V9.311H20zM1.352.001c.102 0 .196.039.267.109l.726.729c.07.07.11.164.11.266v3.392c0 .022.016.039.039.039h1.43c.024 0 .039.016.039.039v.869c0 .024-.015.039-.04.039H.04c-.023 0-.04-.015-.04-.04v-.868c0-.023.017-.04.04-.04h1.43a.037.037 0 0 0 .04-.038V1.136A.19.19 0 0 0 1.32.948H.039a.037.037 0 0 1-.04-.04V.04C0 .016.017 0 .04 0zM20 2.053V3.43H6.206V2.053H20z"/>
    </symbol>

    <symbol id="modalClose" viewBox="0 0 16 16">
        <path fill="currentColor" d="M15.206 0L8 7.206 0.794 0 0 0.792 7.207 8 0 15.208 0.794 16 8 8.793 15.206 16 16 15.208 8.793 8 16 0.792z" transform="translate(-949.000000, -110.000000) translate(451.000000, 90.000000) translate(498.000000, 20.000000)"/>
    </symbol>

	<symbol id="close" viewBox="0 0 20 20" fill="currentColor">
        <path d="m19 0-9 9-9-9-1 1 9 9-9 9 1 1 9-9 9 9 1-1-9-9 9-9z"/>
	</symbol>

    <symbol id="filter" viewBox="0 0 12 10" fill="currentColor">
        <path d="m12 0h-12v2h12v-1zm-2 4h-8v2h8v-1zm-2 4h-4v2h4v-1z"/>
    </symbol>

	<symbol id="play" viewBox="0 0 20 20" fill="currentColor">
        <path d="M2,0 L2,20 L18.988,10 L2,0 Z M3.365,2.387 L16.298,10 L3.365,17.613 L3.365,2.387 Z" id="Fill-1"/>
	</symbol>

    <symbol id="star" viewBox="0 0 20 20">
        <path fill="var(--color-symbol-star-fill, currentColor)" d="m9.346 0-2.101 6.847-6.841-.015-.404 1.309 5.544 4.213-2.129 6.837 1.058.809 5.526-4.242 5.527 4.242 1.058-.809-2.129-6.837 5.545-4.213-.403-1.309-6.843.015-2.099-6.847z"/>
        <path fill="var(--color-symbol-star-outline, currentColor)" d="m9.346 0-2.101 6.847-6.841-.015-.404 1.309 5.544 4.213-2.129 6.837 1.058.809 5.527-4.242 5.526 4.242 1.058-.809-2.129-6.837 5.545-4.213-.403-1.309-6.843.015-2.099-6.847zm-.947 7.793 1.601-5.218 1.601 5.218.656.5 5.212-.011-4.223 3.211-.251.809 1.622 5.209-4.212-3.23h-.81l-4.21 3.23 1.621-5.209-.251-.809-4.225-3.211 5.214.011c.001 0 .655-.5.655-.5z"/>
    </symbol>

	<symbol id="stars" viewBox="0 0 17 17">
	</symbol>

	<symbol id="winner" viewBox="0 0 20 20" fill="currentColor" stroke="none">
        <path d="M17.528 0L20 2.471v15.06L17.53 20H2.468L0 17.53V2.47L2.471.001h15.057zm-.57 1.373H3.041L1.374 3.041v13.92l1.664 1.665h13.923l1.665-1.666V3.041l-1.668-1.668zM10 3.433l5.878 5.878-.97.972-4.22-4.219v9.8H9.311v-9.8l-4.219 4.22-.97-.973 5.876-5.878z" transform="translate(-440.000000, -1769.000000) translate(440.000000, 1769.000000)"/>
	</symbol>

	<symbol id="tv" viewBox="0 0 13 11" fill="none" stroke="currentColor">
	</symbol>

	<symbol id="draw" viewBox="0 0 20 20" fill="none" stroke="currentColor">
        <path d="M0,0 L0,8.963 L5.513,8.963 L5.513,5.168 L7.302,5.168 L8.969,6.835 L8.969,13.163 L7.3,14.834 L5.513,14.833 L5.513,11.038 L0,11.038 L0,20 L5.513,20 L5.513,16.207 L7.87,16.208 L10.342,13.733 L10.342,11.032 L14.487,11.032 L14.487,14.482 L20,14.482 L20,5.52 L14.487,5.52 L14.487,9.658 L10.342,9.658 L10.342,6.265 L7.871,3.794 L5.513,3.794 L5.513,0 L0,0 Z M1.374,7.588 L4.139,7.588 L4.139,1.374 L1.374,1.374 L1.374,7.588 Z M15.862,13.108 L18.627,13.108 L18.627,6.893 L15.862,6.893 L15.862,13.108 Z M1.374,18.626 L4.139,18.626 L4.139,12.413 L1.374,12.413 L1.374,18.626 Z" id="Fill-1"/>
	</symbol>

	<symbol id="shirt" viewBox="0 0 15 12" fill="none" stroke="currentColor">
	</symbol>

	<symbol id="shirtPlayer" viewBox="0 0 16 16" stroke="currentColor" fill="currentColor">
	</symbol>

	<symbol id="sound" viewBox="0 0 20 20" fill="none" stroke="currentColor">
        <path d="M12.408 2v15.858h-3.01l-5.521-4.83H0V6.83h3.877L9.398 2h3.01zm4.274.187C18.822 4.225 20 6.975 20 9.93c0 2.953-1.178 5.703-3.318 7.741l-.943-.989c1.866-1.778 2.894-4.177 2.894-6.752 0-2.577-1.028-4.975-2.894-6.753zm-5.641 1.179H9.912L4.391 8.197l-3.024.007v3.457h3.024l5.521 4.831h1.129V3.366zm3.972 2.361c.903 1.224 1.38 2.677 1.38 4.202 0 1.526-.477 2.98-1.38 4.202l-1.101-.81c.729-.99 1.114-2.16 1.114-3.392 0-1.23-.385-2.403-1.114-3.39z" transform="translate(-520.000000, -2001.000000) translate(519.999800, 2001.000000)"/>
	</symbol>

	<symbol id="sound-off" viewBox="0 0 20 20" fill="none" stroke="currentColor">
        <path d="M12.43 2v15.884H9.412l-5.53-4.838H0V6.838h3.883L9.413 2h3.016zm-1.37 1.369H9.927l-5.53 4.837-3.028.008v3.464h3.028l5.53 4.837h1.131V3.369zm7.972 3.334l.968.97-2.27 2.27L20 12.21l-.968.971-2.27-2.27-2.27 2.27-.968-.97 2.27-2.269-2.27-2.269.969-.97 2.27 2.27 2.27-2.27z" transform="translate(-480.000000, -2001.000000) translate(480.000000, 2001.000000)"/>
	</symbol>

	<symbol id="headphones" viewBox="0 0 20 20" fill="currentColor">
        <path d="M6.606 2L3.45 5.166v3.729h-.978L0 11.368v4.061l2.472 2.473h3.732V8.895h-1.38V5.733l2.352-2.36H12.824l2.355 2.36v3.162h-1.38v9.007h3.73L20 15.429v-4.061l-2.47-2.473h-.977V5.166L13.395 2H6.606zm8.566 8.269h1.788l1.666 1.669v2.922l-1.666 1.668h-1.788v-6.259zM1.373 14.86v-2.922l1.669-1.669H4.83v6.259H3.042L1.373 14.86z" transform="translate(-200.000000, -1769.000000) translate(200.000000, 1769.000000)"/>
	</symbol>

	<symbol id="pause" viewBox="0 0 20 20" fill="currentColor">
        <path d="M7.991,0 L7.991,20 L1.3,20 L1.3,0 L7.991,0 Z M18.64,0 L18.64,20 L11.949,20 L11.949,0 L18.64,0 Z M6.624,1.366 L2.667,1.366 L2.667,18.633 L6.624,18.633 L6.624,1.366 Z M17.272,1.366 L13.316,1.366 L13.316,18.633 L17.272,18.633 L17.272,1.366 Z" id="Combined-Shape"/>
	</symbol>

	<symbol id="stream" viewBox="0 0 20 20" fill="currentColor">
        <path d="M17.527,3.5 L20,5.971 L20,14.131 L17.531,16.6 L2.469,16.6 L0,14.131 L0,5.971 L2.473,3.5 L17.527,3.5 Z M16.958,4.873 L3.041,4.873 L1.374,6.541 L1.374,13.561 L3.039,15.226 L16.961,15.226 L18.626,13.561 L18.626,6.541 L16.958,4.873 Z M7.5858,6.281 L13.4558,10.05 L7.5858,13.82 L7.5858,6.281 Z" id="Combined-Shape"/>
	</symbol>

	<symbol id="stream-locked" viewBox="0 0 20 20" fill="currentColor">
        <path d="M15.5182,10.8957 C17.1442,10.8957 18.4662,12.2157 18.4682,13.8407 L18.4682,13.8407 L20.0002,13.8407 L20.0002,17.9777 L17.9282,20.0507 L13.1012,20.0507 L11.0312,17.9817 L11.0302,13.8407 L12.5692,13.8407 C12.5712,12.2157 13.8932,10.8957 15.5182,10.8957 Z M15.5182,15.2247 C14.9232,15.2247 14.4412,15.7077 14.4412,16.3017 C14.4412,16.6577 14.6252,16.9577 14.8912,17.1537 L14.8912,17.1537 L14.8912,18.6727 L16.1452,18.6727 L16.1452,17.1537 C16.4112,16.9577 16.5952,16.6577 16.5952,16.3017 C16.5952,15.7077 16.1132,15.2247 15.5182,15.2247 Z M17.5256,3.5 L19.9976,5.972 L19.9976,13.779 C19.9796,12.538 19.4556,11.42 18.6226,10.618 L18.6226,10.618 L18.6226,6.541 L16.9566,4.874 L3.0426,4.874 L1.3756,6.541 L1.3756,13.56 L3.0396,15.225 L9.6546,15.225 L9.6546,16.599 L2.4696,16.599 L0.0006,14.13 L0.0006,5.972 L2.4726,3.5 L17.5256,3.5 Z M15.5182,12.2687 C14.6512,12.2687 13.9462,12.9737 13.9452,13.8407 L13.9452,13.8407 L17.0922,13.8407 C17.0902,12.9737 16.3852,12.2687 15.5182,12.2687 Z M7.5853,6.2812 L13.4533,10.0502 L7.5853,13.8202 L7.5853,6.2812 Z" id="Combined-Shape"/>
	</symbol>

    <symbol id="arrow" viewBox="0 0 14 14" fill="currentColor" fill-rule="evenodd">
        <path fill-rule="evenodd" clip-rule="evenodd" d="M0.6,6.4L7,0l6.4,6.4l-0.7,0.7L7.5,1.8V14H6.5V1.8L1.3,7.1 L0.6,6.4z"/>
    </symbol>

    <symbol id="sortArrow" viewBox="0 0 8 4" fill="currentColor">
        <path d="m4 0-4 4h4 4z"/>
    </symbol>

    <symbol id="showMoreIcon" viewBox="0 0 12 12" fill="currentColor">
        <path d="M11.413 3L5.999 8.415 0.586 3.001 0 3.588 5.999 9.588 11.999 3.587 11.414 3z" transform="translate(-394.000000, -1057.000000) translate(0.000000, 370.000000) translate(12.000000, 45.000000) translate(0.000000, 360.000000) translate(270.000000, 280.000000) translate(118.000000, 8.000000) rotate(-360.000000) translate(-118.000000, -8.000000) translate(112.000000, 2.000000)"/>
    </symbol>

	<symbol id="calendar" viewBox="0 0 20 20">
        <path d="M5.514 0v1.381h3.799V0h1.374v1.381h3.808V0h1.373v1.381h1.661L20 3.853v13.676L17.529 20H2.473L0 17.529V3.853l2.472-2.472H4.14V0h1.374zm13.112 6.894H1.375v10.065l1.667 1.667h13.917l1.667-1.667V6.894zM5.517 13.803v2.756h-1.38v-2.756h1.38zm3.446 0v2.756h-1.38v-2.756h1.38zm3.455 0v2.756h-1.38v-2.756h1.38zm-6.9-4.836v2.76H4.136v-2.76h1.38zm3.446 0v2.76H7.582v-2.76h1.381zm3.454 0v2.76h-1.38v-2.76h1.38zm3.455 0v2.76h-1.381v-2.76h1.38zM4.14 2.755H3.042L1.375 4.423v1.098h17.251V4.423l-1.667-1.668h-1.091v1.374h-1.373V2.755h-3.808v1.374H9.313V2.755H5.514v1.374H4.14V2.755z" transform="translate(-120.000000, -1617.000000) translate(119.999500, 1617.000200)"/>
	</symbol>

	<symbol id="settings" viewBox="0 0 20 20" fill="currentColor">
        <path d="M12.3094,0.0002 L12.4904,2.8682 L13.2834,3.1982 L15.4364,1.2972 L18.7034,4.5642 L16.8034,6.7192 L17.1314,7.5102 L19.9994,7.6912 L19.9994,12.3092 L17.1314,12.4902 L16.8034,13.2812 L18.7034,15.4392 L15.4364,18.7022 L13.2834,16.8032 L12.4904,17.1312 L12.3094,20.0002 L7.6914,20.0002 L7.5104,17.1312 L6.7174,16.8032 L4.5614,18.7022 L1.2964,15.4392 L3.1964,13.2812 L2.8684,12.4902 L0.0004,12.3092 L0.0004,7.6912 L2.8684,7.5102 L3.1964,6.7192 L1.2964,4.5642 L4.5614,1.2972 L6.7174,3.1982 L7.5104,2.8682 L7.6914,0.0002 L12.3094,0.0002 Z M11.0194,1.3742 L8.9804,1.3742 L8.8274,3.8102 L6.4524,4.7932 L4.6214,3.1802 L3.1794,4.6222 L4.7944,6.4512 L3.8094,8.8282 L1.3744,8.9792 L1.3744,11.0202 L3.8094,11.1712 L4.7944,13.5482 L3.1794,15.3802 L4.6204,16.8202 L6.4524,15.2072 L8.8274,16.1902 L8.9804,18.6262 L11.0194,18.6262 L11.1724,16.1902 L13.5474,15.2072 L15.3784,16.8202 L16.8204,15.3802 L15.2064,13.5482 L16.1904,11.1712 L18.6264,11.0202 L18.6264,8.9792 L16.1904,8.8282 L15.2064,6.4512 L16.8204,4.6222 L15.3784,3.1802 L13.5474,4.7932 L11.1724,3.8102 L11.0194,1.3742 Z M9.9996,6.3188 C12.0296,6.3188 13.6826,7.9708 13.6826,10.0008 C13.6826,12.0308 12.0296,13.6838 9.9996,13.6838 C7.9696,13.6838 6.3166,12.0308 6.3166,10.0008 C6.3166,7.9708 7.9696,6.3188 9.9996,6.3188 Z M9.9996,7.6928 C8.7266,7.6928 7.6906,8.7278 7.6906,10.0008 C7.6906,11.2738 8.7266,12.3098 9.9996,12.3098 C11.2726,12.3098 12.3086,11.2738 12.3086,10.0008 C12.3086,8.7278 11.2726,7.6928 9.9996,7.6928 Z" id="Combined-Shape"/>
	</symbol>

	<symbol id="settingsToggle" viewBox="0 0 11.9 10.4" fill="currentColor">
	</symbol>

	<symbol id="check" viewBox="0 0 8.8 6.9" fill="currentColor">
	</symbol>

	<symbol id="bell" viewBox="0 0 11 13">
	</symbol>

	<symbol id="bell-off" viewBox="0 0 11 13">
	</symbol>

	<symbol id="info" viewBox="0 0 20 20" fill="currentColor">
        <path d="M10 0c5.514 0 10 4.485 10 9.999S15.514 20 10 20 0 15.513 0 9.999C0 4.485 4.486 0 10 0zm0 1.374c-4.756 0-8.626 3.87-8.626 8.625 0 4.757 3.87 8.627 8.626 8.627 4.757 0 8.626-3.87 8.626-8.627 0-4.755-3.869-8.625-8.626-8.625zm1.035 5.52v6.21h2.07v2.07h-6.21v-2.07h2.07v-4.14h-2.07v-2.07h4.14zm0-3.45v2.07h-2.07v-2.07h2.07z" transform="translate(-320.000000, -1769.000000) translate(320.000000, 1769.000100)"/>
	</symbol>

	<symbol id="info2" viewBox="0 0 25 25">
	</symbol>

	<symbol id="pesapallo" viewBox="0 0 20 20" fill="currentColor">
        <path d="M16.1 16.104c-1.504 1.505-3.434 2.298-5.404 2.456-.016-.517.023-1.027.109-1.528l.915.245.355-1.33-.92-.245c.299-.818.741-1.58 1.311-2.262l.67.669.971-.971-.671-.671c.68-.57 1.443-1.015 2.26-1.317l.248.927 1.327-.355-.246-.921c.502-.087 1.014-.122 1.532-.104-.159 1.97-.953 3.902-2.457 5.407M1.442 10.678c.08.002.16.014.24.014.559 0 1.109-.061 1.65-.161l.264.984 1.326-.355-.27-1.008c1.043-.366 2.005-.93 2.863-1.666l.744.744.972-.971-.725-.724c.74-.86 1.31-1.83 1.677-2.876l.975.26.355-1.328-.986-.264c.115-.618.169-1.247.152-1.887 1.977.154 3.912.948 5.421 2.458 1.51 1.51 2.305 3.45 2.458 5.43-.639-.014-1.269.038-1.887.154l-.266-.995-1.326.355.263.984c-1.047.367-2.018.934-2.877 1.67l-.724-.724-.972.97.726.726c-.74.86-1.31 1.829-1.677 2.875l-.975-.261-.355 1.329.986.264c-.115.617-.169 1.247-.152 1.887-1.977-.156-3.913-.95-5.421-2.458-1.509-1.51-2.304-3.447-2.459-5.426m2.459-6.78c1.504-1.505 3.433-2.3 5.404-2.457.016.517-.023 1.028-.109 1.529l-.915-.245-.355 1.329.921.246c-.3.818-.742 1.58-1.312 2.263l-.67-.67-.972.97.671.672c-.681.57-1.444 1.012-2.261 1.313l-.247-.923-1.327.356.246.916c-.501.086-1.013.125-1.531.109.158-1.972.952-3.903 2.457-5.408m13.171-.971c-3.901-3.902-10.243-3.902-14.143 0C1.04 4.816 0 7.327 0 10c0 2.673 1.04 5.185 2.929 7.074C4.879 19.025 7.44 20 10 20c2.561 0 5.121-.974 7.072-2.925C18.96 15.185 20 12.674 20 10s-1.04-5.185-2.928-7.074" transform="translate(-240.000000, -1849.000000) translate(239.999700, 1849.000000)"/>
    </symbol>

	<symbol id="pesapallo-bat" viewBox="0 0 20 20" fill="currentColor">
        <path d="M16.932 0l-8.83 8.814-3.159 5.258L1.54 17.52l-.564-.564-.976.975L2.069 20l.975-.976-.529-.529 3.403-3.448 5.258-3.159L20 3.059V1.083L18.914 0h-1.982zM9.196 9.669l8.303-8.302.839.007.281.282.004.833-8.303 8.304-2.814 1.691 1.69-2.815z" transform="translate(-280.000000, -1849.000000) translate(280.000000, 1849.000000)"/>
    </symbol>

	<symbol id="baseball" viewBox="0 0 20 20" fill="currentColor">
        <path d="M16.1 16.104c-1.504 1.505-3.434 2.298-5.404 2.456-.016-.517.023-1.027.109-1.528l.915.245.355-1.33-.92-.245c.299-.818.741-1.58 1.311-2.262l.67.669.971-.971-.671-.671c.68-.57 1.443-1.015 2.26-1.317l.248.927 1.327-.355-.246-.921c.502-.087 1.014-.122 1.532-.104-.159 1.97-.953 3.902-2.457 5.407M1.442 10.678c.08.002.16.014.24.014.559 0 1.109-.061 1.65-.161l.264.984 1.326-.355-.27-1.008c1.043-.366 2.005-.93 2.863-1.666l.744.744.972-.971-.725-.724c.74-.86 1.31-1.83 1.677-2.876l.975.26.355-1.328-.986-.264c.115-.618.169-1.247.152-1.887 1.977.154 3.912.948 5.421 2.458 1.51 1.51 2.305 3.45 2.458 5.43-.639-.014-1.269.038-1.887.154l-.266-.995-1.326.355.263.984c-1.047.367-2.018.934-2.877 1.67l-.724-.724-.972.97.726.726c-.74.86-1.31 1.829-1.677 2.875l-.975-.261-.355 1.329.986.264c-.115.617-.169 1.247-.152 1.887-1.977-.156-3.913-.95-5.421-2.458-1.509-1.51-2.304-3.447-2.459-5.426m2.459-6.78c1.504-1.505 3.433-2.3 5.404-2.457.016.517-.023 1.028-.109 1.529l-.915-.245-.355 1.329.921.246c-.3.818-.742 1.58-1.312 2.263l-.67-.67-.972.97.671.672c-.681.57-1.444 1.012-2.261 1.313l-.247-.923-1.327.356.246.916c-.501.086-1.013.125-1.531.109.158-1.972.952-3.903 2.457-5.408m13.171-.971c-3.901-3.902-10.243-3.902-14.143 0C1.04 4.816 0 7.327 0 10c0 2.673 1.04 5.185 2.929 7.074C4.879 19.025 7.44 20 10 20c2.561 0 5.121-.974 7.072-2.925C18.96 15.185 20 12.674 20 10s-1.04-5.185-2.928-7.074" transform="translate(-240.000000, -1849.000000) translate(239.999700, 1849.000000)"/>
	</symbol>

	<symbol id="baseball-bat" viewBox="0 0 20 20" fill="currentColor">
        <path d="M16.932 0l-8.83 8.814-3.159 5.258L1.54 17.52l-.564-.564-.976.975L2.069 20l.975-.976-.529-.529 3.403-3.448 5.258-3.159L20 3.059V1.083L18.914 0h-1.982zM9.196 9.669l8.303-8.302.839.007.281.282.004.833-8.303 8.304-2.814 1.691 1.69-2.815z" transform="translate(-280.000000, -1849.000000) translate(280.000000, 1849.000000)"/>
	</symbol>

	<symbol id="tennis" viewBox="0 0 20 20" fill="currentColor">
        <path d="M10 18.626c-1.052 0-2.047-.217-2.98-.562-1.053-.511-1.755-1.557-1.831-2.796-.083-1.376.574-2.601 1.756-3.275 1.348-.768 3.135-.63 5.608-.434l1.154.088c2.079.136 3.875-.689 4.808-2.233.019-.031.023-.067.041-.099.018.231.069.451.069.686 0 4.755-3.869 8.625-8.625 8.625m-8.626-8.625c0-.756.128-1.477.311-2.175.448.265 1.035.504 1.729.504.399 0 .829-.078 1.282-.275 2.381-1.029 3.615-4.628 4.122-6.562.39-.054.777-.119 1.182-.119 2.998 0 5.638 1.541 7.185 3.869.71 1.183.772 2.441.154 3.462-.661 1.092-1.981 1.694-3.534 1.57l-1.145-.086c-2.719-.214-4.681-.368-6.396.613-1.621.925-2.558 2.666-2.445 4.549.017.281.097.541.159.806-1.603-1.566-2.604-3.744-2.604-6.156m5.913-8.147c-.658 2.161-1.74 4.337-3.135 4.941-.868.374-1.609-.008-2.013-.308.982-2.188 2.853-3.867 5.148-4.633m11.054 2.644c-.007-.011-.009-.022-.015-.033l-.004.003C16.528 1.777 13.469 0 10 0 4.485 0 0 4.486 0 10.001c0 4.31 2.745 7.979 6.575 9.382.02.009.034.024.054.032l.004-.011C7.687 19.783 8.817 20 10 20c5.513 0 10-4.485 10-9.999 0-2.033-.613-3.923-1.659-5.503" transform="translate(-480.000000, -1849.000000) translate(480.000600, 1849.000300)"/>
	</symbol>

	<symbol id="darts" viewBox="0 0 20 20" fill="currentColor">
        <path d="M15.173 0l-4.138 4.138v3.448L8.963 9.658H7.301L3.45 13.51v1.661L0 18.62V20h1.379l3.449-3.45H6.49l3.852-3.851-.001-1.661 2.074-2.073h3.447L20 4.828V3.447h-3.448L16.543 0h-1.37zm-2.758 4.828l2.758-2.76v2.76h2.758l-2.758 2.758h-2.758V4.828zM4.822 15.169l.002-1.088 3.046-3.05h1.092l.006.007v1.092l-3.046 3.047H4.829l-.007-.008z" transform="translate(-400.000000, -1849.000000) translate(400.000000, 1849.000000)"/>
	</symbol>

	<symbol id="volleyball" viewBox="0 0 20 20" fill="currentColor">
        <path d="M16.096 16.096c-.625.624-1.328 1.141-2.088 1.541-2.42-.796-4.535-2.264-6.134-4.258.535-.91 1.235-1.728 2.076-2.408 1.78 2.222 4.387 3.599 7.218 3.823-.311.463-.669.899-1.072 1.302m-9.45 1.848c-.005-1.11.195-2.191.575-3.198 1.357 1.546 3.011 2.775 4.87 3.621-.676.167-1.376.253-2.091.253-1.168 0-2.294-.227-3.354-.676m-3.921-3.318c-.05-.078-.098-.156-.145-.235.508-1.833 1.337-3.505 2.466-4.973 1.139-1.481 2.537-2.687 4.157-3.589.352 1.223.438 2.516.25 3.783-2.454 1.808-3.964 4.588-4.164 7.609-1.025-.67-1.9-1.553-2.564-2.595m1.18-10.721c.866-.867 1.883-1.526 2.993-1.954.752.745 1.367 1.619 1.815 2.575C6.85 5.529 5.25 6.891 3.952 8.577c-.918 1.195-1.655 2.511-2.201 3.93-.245-.807-.371-1.65-.371-2.507 0-2.302.897-4.467 2.525-6.095m7.825-2.353c1.07 1.606 1.842 3.406 2.236 5.22.421 1.931.426 3.857.019 5.729-1.235-.619-2.326-1.525-3.171-2.668.251-1.663.092-3.367-.465-4.947-.434-1.231-1.102-2.374-1.958-3.357.525-.099 1.063-.15 1.609-.15.588 0 1.167.059 1.73.173M18.621 10c0 1.206-.246 2.373-.714 3.447-.904-.008-1.788-.153-2.627-.419.503-2.14.514-4.343.034-6.549-.316-1.452-.853-2.896-1.576-4.252.863.416 1.66.979 2.358 1.678 1.628 1.628 2.525 3.793 2.525 6.095m-1.549-7.071C15.183 1.04 12.672 0 10 0 7.329 0 4.818 1.04 2.929 2.929 1.041 4.818 0 7.328 0 10c0 1.909.54 3.765 1.561 5.367.994 1.56 2.396 2.812 4.054 3.623C6.987 19.66 8.463 20 10 20c2.672 0 5.183-1.04 7.072-2.929C18.96 15.182 20 12.671 20 10c0-2.672-1.04-5.182-2.928-7.071" transform="translate(-520.000000, -1849.000000) translate(519.999600, 1849.000000)"/>
	</symbol>

	<symbol id="beach-volleyball" viewBox="0 0 20 20" fill="currentColor">
        <path d="M16.096 16.096c-.625.624-1.328 1.141-2.088 1.541-2.42-.796-4.535-2.264-6.134-4.258.535-.91 1.235-1.728 2.076-2.408 1.78 2.222 4.387 3.599 7.218 3.823-.311.463-.669.899-1.072 1.302m-9.45 1.848c-.005-1.11.195-2.191.575-3.198 1.357 1.546 3.011 2.775 4.87 3.621-.676.167-1.376.253-2.091.253-1.168 0-2.294-.227-3.354-.676m-3.921-3.318c-.05-.078-.098-.156-.145-.235.508-1.833 1.337-3.505 2.466-4.973 1.139-1.481 2.537-2.687 4.157-3.589.352 1.223.438 2.516.25 3.783-2.454 1.808-3.964 4.588-4.164 7.609-1.025-.67-1.9-1.553-2.564-2.595m1.18-10.721c.866-.867 1.883-1.526 2.993-1.954.752.745 1.367 1.619 1.815 2.575C6.85 5.529 5.25 6.891 3.952 8.577c-.918 1.195-1.655 2.511-2.201 3.93-.245-.807-.371-1.65-.371-2.507 0-2.302.897-4.467 2.525-6.095m7.825-2.353c1.07 1.606 1.842 3.406 2.236 5.22.421 1.931.426 3.857.019 5.729-1.235-.619-2.326-1.525-3.171-2.668.251-1.663.092-3.367-.465-4.947-.434-1.231-1.102-2.374-1.958-3.357.525-.099 1.063-.15 1.609-.15.588 0 1.167.059 1.73.173M18.621 10c0 1.206-.246 2.373-.714 3.447-.904-.008-1.788-.153-2.627-.419.503-2.14.514-4.343.034-6.549-.316-1.452-.853-2.896-1.576-4.252.863.416 1.66.979 2.358 1.678 1.628 1.628 2.525 3.793 2.525 6.095m-1.549-7.071C15.183 1.04 12.672 0 10 0 7.329 0 4.818 1.04 2.929 2.929 1.041 4.818 0 7.328 0 10c0 1.909.54 3.765 1.561 5.367.994 1.56 2.396 2.812 4.054 3.623C6.987 19.66 8.463 20 10 20c2.672 0 5.183-1.04 7.072-2.929C18.96 15.182 20 12.671 20 10c0-2.672-1.04-5.182-2.928-7.071" transform="translate(-520.000000, -1849.000000) translate(519.999600, 1849.000000)"/>
	</symbol>

	<symbol id="badminton" viewBox="0 0 20 20" fill="currentColor">
        <mask id="z19frrtphb">
            <use xlink:href="#gns6mbar6a"/>
        </mask>
        <path d="M18.605 11.032l-.001 1.895-1.019 1.636-9.875 1.434-.399-.403 7.441-4.562h3.853zM6.351 14.61l-.781-.788 4.591-7.695 3.624-.572.749.756-.566 3.665-7.617 4.634zm-1.876 3.47c-.322.326-.749.505-1.204.505-.454 0-.882-.18-1.203-.504-.666-.672-.666-1.766 0-2.438l1.686-1.702 2.411 2.434-1.69 1.706zm1.06-15.59l1.62-1.156 1.837-.001v4.023l-4.482 7.51-.396-.4L5.535 2.49zm10.416 3.369l-1.747-1.745-3.878.604V0L6.667.003 4.169 1.665 2.527 13.07.906 14.689c-1.208 1.208-1.208 3.172 0 4.38.587.586 1.385.932 2.214.932.83 0 1.592-.346 2.178-.932l1.529-1.527 11.577-1.663L20 13.399V9.659h-4.653l.604-3.8z" mask="url(#z19frrtphb)"/>
	</symbol>

	<symbol id="american-football" viewBox="0 0 20 20" fill="currentColor">
        <path d="M14.591.003c2.568-.067 4.451.954 4.451.954s1.021 1.884.955 4.451c-.038 1.49-.387 2.995-1.039 4.472-.803 1.821-2.07 3.604-3.765 5.3l-.013.012c-1.695 1.695-3.478 2.962-5.299 3.765C8.404 19.608 6.8 20 5.138 20c-2.412 0-4.18-.958-4.18-.958s-1.02-1.884-.955-4.45c.038-1.492.388-2.996 1.039-4.473.803-1.82 2.07-3.604 3.765-5.3l.013-.01c1.695-1.697 3.478-2.964 5.299-3.767 1.477-.65 2.982-1 4.472-1.039zm-12.6 11.458c-.377 1.055-.582 2.116-.608 3.165-.045 1.738.406 2.954.601 3.393.601.27 1.884.651 3.471.596 1.022-.035 2.056-.239 3.083-.607zm8.18-8.92C8.68 3.278 7.21 4.366 5.796 5.781l-.012.012c-1.392 1.391-2.468 2.837-3.206 4.303l7.325 7.325c1.466-.739 2.911-1.815 4.302-3.205l.012-.013c1.415-1.414 2.503-2.885 3.242-4.376zm1.843 4.47l.976.974-.863.863.655.654-.976.975-.654-.654-1.275 1.275.654.654-.976.976-.654-.655-.862.863-.976-.975.863-.863-.632-.632.976-.975.631.631 1.275-1.274-.632-.632.976-.976.632.632.862-.862zm2.825-5.632l-.294.005c-.995.034-2.001.228-3.001.578l6.494 6.494c.349-1 .543-2.007.577-3 .055-1.59-.326-2.872-.596-3.476-.601-.269-1.885-.65-3.474-.596z" transform="translate(-160.000000, -1849.000000) translate(160.000000, 1849.000000)"/>
    </symbol>

	<symbol id="table-tennis" viewBox="0 0 20 20" fill="currentColor">
        <path d="M14.726 15.008L4.994 5.274C6.208 2.968 8.6 1.373 11.382 1.373c3.995 0 7.244 3.251 7.244 7.245 0 2.784-1.593 5.176-3.9 6.39zM4.137 8.618c0-.682.126-1.331.303-1.957l8.899 8.901c-.627.177-1.274.302-1.957.302-3.995 0-7.245-3.25-7.245-7.246zM.975 20l4.848-4.85c1.505 1.284 3.431 2.088 5.559 2.088 4.752 0 8.618-3.867 8.618-8.62C20 3.865 16.134 0 11.382 0 6.63 0 2.764 3.865 2.764 8.618c0 2.129.805 4.055 2.088 5.561L0 19.032.975 20z" transform="translate(-440.000000, -1849.000000) translate(440.000000, 1849.000100)"/>
	</symbol>

	<symbol id="cricket" viewBox="0 0 20 20" fill="currentColor">
        <path d="M10 0c5.514 0 10 4.485 10 9.999C20 15.514 15.514 20 10 20 4.487 20 0 15.514 0 9.999 0 4.485 4.487 0 10 0zm6.537 4.436L4.435 16.534c.266.228.523.461.815.655l.847-.847.976.975-.558.559c1.068.475 2.243.75 3.485.75 4.757 0 8.626-3.871 8.626-8.627 0-1.242-.275-2.417-.75-3.484l-.557.557-.976-.975.846-.847c-.193-.291-.426-.55-.652-.814zm-7.999 9.465l.976.976-.976.976-.976-.976.976-.976zM10 1.373c-4.756 0-8.626 3.869-8.626 8.626 0 1.242.275 2.417.75 3.484l.558-.556.976.975-.847.847c.193.291.427.549.653.814L15.566 3.464c-.266-.227-.524-.46-.816-.653l-.847.846-.976-.975.558-.559c-1.068-.475-2.242-.75-3.485-.75zm1.708 9.358l.976.976-.976.976-.976-.976.976-.976zm-6.586-.245l.976.976-.976.976-.976-.976.976-.976zM14.88 7.56l.976.976-.976.976-.976-.976.976-.976zm-6.587-.244l.976.976-.976.976-.976-.976.976-.976zm3.171-3.17l.976.975-.976.976-.976-.976.976-.976z" transform="translate(-320.000000, -1849.000000) translate(319.999800, 1849.000300)"/>
	</symbol>

	<symbol id="cricket-bat" viewBox="0 0 20 20" fill="currentColor">
        <path d="M19.021 0l-5.224 5.246-.405-.417h-2.133L0 16.101V20h3.899L15.173 8.74V6.608l-.397-.383L20 1.001 19.021 0zM1.378 16.671L11.83 6.219h.992l.958.959v.992L3.329 18.622H1.378v-1.951z" transform="translate(-360.000000, -1849.000000) translate(360.000000, 1849.000000)"/>
	</symbol>

    <symbol id="warning" viewBox="0 0 20 17.3">
    </symbol>

	<symbol id="winner" viewBox="0 0 12 12" fill="currentColor">
	</symbol>

	<symbol id="oddsUp" viewBox="0 0 10 12" fill="none" stroke="currentColor">
	</symbol>

	<symbol id="oddsDown" viewBox="0 0 10 12" fill="none" stroke="currentColor">
	</symbol>

    <symbol id="penaltyMissed" viewBox="0 0 20 20">
        <path fill="#DC0000" d="M9.437 1.2L0 17.543l.563.977h18.872l.564-.977L10.565 1.2H9.437zm-.428 12.091h1.961v-7.19H9.01v7.19zm0 3.268h1.961v-1.962H9.01v1.962z" transform="translate(-960.000000, -1769.000000) translate(960.000000, 1769.000000)"/>
        <path fill="#FFF" d="M10.971 14.397v1.962H9.01v-1.962h1.961zm0-8.495v7.19H9.01v-7.19h1.961z" transform="translate(-960.000000, -1769.000000) translate(960.000000, 1769.000000)"/>
    </symbol>

	<symbol id="var" viewBox="0 0 20 20" fill="currentColor">
        <path d="M17.528,3.4 L20,5.872 L20,14.031 L17.531,16.502 L2.47,16.502 L0,14.031 L0,5.872 L2.473,3.4 L17.528,3.4 Z M16.959,4.774 L3.042,4.774 L1.374,6.441 L1.374,13.462 L3.04,15.127 L16.961,15.127 L18.626,13.462 L18.626,6.441 L16.959,4.774 Z M3.25,7.099 C3.266,7.099 3.282,7.113 3.291,7.13 L3.291,7.13 L4.336,11.692 C4.336,11.714 4.353,11.723 4.368,11.723 L4.368,11.723 L4.888,11.723 C4.904,11.723 4.919,11.714 4.928,11.692 L4.928,11.692 L5.958,7.13 C5.966,7.113 5.982,7.099 5.998,7.099 L5.998,7.099 L7.037,7.099 L5.726,12.665 C5.718,12.682 5.71,12.69 5.686,12.69 L5.686,12.69 L3.57,12.69 C3.554,12.69 3.538,12.673 3.53,12.657 L3.53,12.657 L2.22,7.099 Z M11.0065,7.0986 C11.1105,7.0986 11.2065,7.1376 11.2775,7.2096 L11.2775,7.2096 L12.0125,7.9536 C12.0855,8.0256 12.1255,8.1216 12.1255,8.2236 L12.1255,8.2236 L12.1255,12.6486 C12.1255,12.6726 12.1085,12.6896 12.0925,12.6896 L12.0925,12.6896 L11.2065,12.6896 C11.1825,12.6896 11.1665,12.6726 11.1665,12.6486 L11.1665,12.6486 L11.1665,10.9556 C11.1665,10.8446 11.0785,10.7646 10.9755,10.7646 L10.9755,10.7646 L8.4665,10.7646 C8.3625,10.7646 8.2745,10.8446 8.2745,10.9556 L8.2745,10.9556 L8.2745,12.6486 C8.2745,12.6726 8.2585,12.6896 8.2345,12.6896 L8.2345,12.6896 L7.3485,12.6896 C7.3245,12.6896 7.3085,12.6726 7.3085,12.6486 L7.3085,12.6486 L7.3085,8.2236 C7.3085,8.1216 7.3485,8.0256 7.4195,7.9536 L7.4195,7.9536 L8.1635,7.2096 C8.2345,7.1376 8.3315,7.0986 8.4345,7.0986 L8.4345,7.0986 Z M16.6294,7.0987 C16.7344,7.0987 16.8304,7.1377 16.9014,7.2087 L16.9014,7.2087 L17.6204,7.9527 C17.7004,8.0257 17.7404,8.1207 17.7404,8.2237 L17.7404,8.2237 L17.7404,9.2537 C17.7404,9.3587 17.7004,9.4537 17.6204,9.5267 L17.6204,9.5267 L16.9014,10.2607 C16.8304,10.3337 16.7344,10.3727 16.6294,10.3727 L16.6294,10.3727 L16.3994,10.3727 L17.7324,12.6897 L16.6224,12.6897 L15.2884,10.3727 L14.0584,10.3727 C13.9544,10.3807 13.8824,10.4687 13.8824,10.5647 L13.8824,10.5647 L13.8824,12.6487 C13.8824,12.6727 13.8664,12.6897 13.8424,12.6897 L13.8424,12.6897 L12.9564,12.6897 C12.9324,12.6897 12.9164,12.6727 12.9164,12.6487 L12.9164,12.6487 L12.9164,7.1377 C12.9164,7.1137 12.9324,7.0987 12.9564,7.0987 L12.9564,7.0987 Z M10.9755,8.0646 L8.4665,8.0646 C8.3625,8.0646 8.2745,8.1436 8.2745,8.2556 L8.2745,8.2556 L8.2745,9.6056 C8.2745,9.7096 8.3625,9.7976 8.4665,9.7976 L8.4665,9.7976 L10.9755,9.7976 C11.0785,9.7976 11.1665,9.7096 11.1665,9.6056 L11.1665,9.6056 L11.1665,8.2556 C11.1665,8.1436 11.0785,8.0646 10.9755,8.0646 L10.9755,8.0646 Z M16.5834,8.0647 L14.0744,8.0647 C13.9624,8.0647 13.8824,8.1437 13.8824,8.2557 L13.8824,8.2557 L13.8824,9.2237 C13.8824,9.3267 13.9704,9.4137 14.0744,9.4137 L14.0744,9.4137 L16.5834,9.4137 C16.6864,9.4137 16.7744,9.3267 16.7744,9.2237 L16.7744,9.2237 L16.7744,8.2557 C16.7744,8.1437 16.6864,8.0647 16.5834,8.0647 L16.5834,8.0647 Z" id="Combined-Shape"/>
	</symbol>

	<symbol id="floorballBall" viewBox="0 0 20 20" fill="currentColor">
        <path d="M2.893 2.925c3.91-3.901 10.265-3.898 14.172 0C18.957 4.814 20 7.325 20 9.999c0 2.668-1.041 5.176-2.93 7.064-.002.003-.003.006-.006.008-.003.004-.007.005-.01.008-1.892 1.884-4.403 2.92-7.075 2.92-2.668 0-5.177-1.034-7.068-2.914-.006-.005-.012-.008-.018-.014-.135-.134-.253-.28-.355-.436-3.385-3.781-3.384-9.5.004-13.28.083-.125.183-.24.287-.352.024-.024.039-.053.064-.078zm9.089-1.291c-.02.02-.034.046-.054.067-.537.537-1.244.804-1.95.804-.707 0-1.414-.27-1.952-.806-.02-.02-.034-.044-.053-.065-.686.163-1.347.423-1.984.755.296.129.574.303.808.537.522.52.809 1.212.809 1.948 0 .738-.287 1.429-.81 1.949-.52.52-1.214.807-1.951.807-.737 0-1.432-.286-1.953-.807-.232-.232-.41-.501-.544-.79-.33.632-.587 1.288-.748 1.968.02.02.045.034.065.053 1.073 1.07 1.073 2.82-.002 3.895-.02.018-.043.03-.062.049.162.679.419 1.334.747 1.965.135-.288.312-.557.544-.79 1.08-1.073 2.83-1.071 3.905 0 .522.52.809 1.213.809 1.95 0 .737-.287 1.428-.81 1.948-.236.237-.51.412-.797.545.627.327 1.282.588 1.973.752.02-.022.036-.05.057-.071.517-.517 1.21-.806 1.947-.806.739 0 1.432.289 1.954.809.02.02.035.046.055.068.69-.164 1.346-.424 1.974-.752-.29-.132-.563-.308-.8-.545-.521-.52-.81-1.211-.81-1.948 0-.737.289-1.43.81-1.95 1.074-1.075 2.826-1.075 3.904 0 .235.235.413.506.548.796.327-.624.587-1.276.752-1.964l-.07-.054c-1.08-1.077-1.08-2.825-.002-3.9.022-.021.05-.037.072-.058-.164-.69-.424-1.341-.751-1.966-.135.29-.314.562-.548.796-.54.537-1.246.806-1.952.806-.708 0-1.415-.27-1.953-.806-.521-.52-.81-1.211-.81-1.95 0-.735.289-1.427.81-1.947.237-.236.51-.411.797-.544-.634-.33-1.291-.587-1.974-.748zm3.13 12.108c-.355 0-.71.134-.98.403-.261.263-.405.609-.405.978s.144.715.405.978c.537.534 1.407.534 1.949.006l.01-.008.005-.007c.533-.54.532-1.41-.005-1.947-.271-.27-.625-.403-.98-.403zm-10.267 0c-.354 0-.71.134-.98.403-.535.535-.536 1.4-.008 1.94l.01.014.013.01c.542.525 1.41.525 1.943-.008.54-.54.54-1.417 0-1.956-.27-.27-.624-.403-.978-.403zM8.027 8.05c1.074-1.074 2.826-1.076 3.903 0 .522.52.809 1.212.809 1.949 0 .737-.287 1.428-.808 1.948-.54.537-1.246.806-1.952.806-.708 0-1.415-.27-1.953-.806-.521-.52-.81-1.211-.81-1.948 0-.737.289-1.43.81-1.95zm1.952.568c-.355 0-.71.134-.98.403-.261.263-.406.609-.406.978s.145.715.406.978c.54.537 1.417.537 1.959 0 .539-.54.539-1.417 0-1.956-.271-.27-.625-.403-.98-.403zm5.133-5.124c-.355 0-.71.134-.98.403-.261.263-.405.609-.405.977 0 .37.144.716.405.979.54.537 1.417.537 1.959 0 .539-.54.539-1.417 0-1.956-.271-.27-.625-.403-.98-.403zm-10.267 0c-.371 0-.718.142-.98.403-.54.539-.54 1.417 0 1.956.54.537 1.418.537 1.958 0 .54-.54.54-1.417 0-1.956-.261-.261-.608-.403-.978-.403z" transform="translate(-240.000000, -1809.000000) translate(240.000000, 1809.000000)"/>
    </symbol>

	<symbol id="video" fill="currentColor" viewBox="0 0 20 20">
        <path fill-rule="evenodd" d="M17.5,2.8L20,5.2v9.5l-2.5,2.5H2.5L0,14.8V5.2l2.5-2.5H17.5z      M17,4.1H3L1.4,5.8v8.4L3,15.9H17l1.7-1.7V5.8C18.6,5.8,17,4.1,17,4.1z M7.6,6.2l5.9,3.8l-5.9,3.8L7.6,6.2L7.6,6.2z"/>
    </symbol>

	<symbol id="assist" viewBox="0 0 20 20" fill="currentColor">
        <path d="M13.66 9.28c0 .26-.22.48-.48.48H6.9c-.26 0-.48-.22-.48-.48V5.9c0-.28.22-.48.48-.48h6.28c.26 0 .48.2.48.48v3.38zm.281-6.001a.957.957 0 0 0-.68-.279H6.818c-.26 0-.5.1-.68.279L4.28 5.139a.947.947 0 0 0-.28.68v11.082c0 .06.04.099.1.099h2.22c.06 0 .1-.04.1-.1v-4.24c0-.278.22-.48.48-.48h6.28c.26 0 .48.202.48.48v4.24c0 .06.04.1.101.1h2.22c.04 0 .08-.04.08-.1V5.82c0-.26-.1-.5-.282-.68l-1.838-1.86z"/>
    </symbol>

    <symbol id="shield" viewBox="0 0 24 24" fill="currentColor">
        <path d="m18.993 0 3.558 3.536v11.95L14.018 24H9.565L1 15.487V3.537L4.568 0h14.425zm-.34.82H4.907L1.821 3.88v11.267l8.083 8.034h3.775l8.051-8.034V3.88L18.654.82zm-.68 1.659 2.09 2.082v10.216l-6.759 6.743h-3.032l-6.784-6.743V4.56l2.104-2.082h12.38zm-.34.82H5.93L4.309 4.903v9.533L10.61 20.7h2.355l6.277-6.263V4.903l-1.61-1.604zm-.051 5.146v1.162l-7.9 7.897-.58-.581 8.48-8.478zm-.551-3.456.58.581L7.68 15.5l-.581-.58 9.932-9.93zm-2.84-.042-8.218 8.216v-1.16l7.056-7.056h1.162z"/>
    </symbol>

	<symbol id="americanFootballBall" viewBox="0 0 20 20" fill="currentColor">
        <mask id="kqjs8cscnb" fill="#fff">
            <use xlink:href="#4fmjjdbara"/>
        </mask>
        <path d="M17.707 9.61c-.713 1.615-1.845 3.205-3.373 4.735-1.52 1.518-3.11 2.65-4.724 3.36-1.375.607-2.766.913-4.137.913-.337 0-.65-.031-.955-.07 2.098-.823 5.207-2.42 8.292-5.41l.002.003.165-.165v-.002c3.161-3.264 4.77-6.56 5.547-8.651.062.429.104.886.092 1.384-.034 1.298-.34 2.61-.909 3.903M2.113 10.85l1.081 1.08.982-.981L2.738 9.51c.221-.411.47-.821.745-1.227l1.68 1.679.981-.982-1.822-1.822c.284-.352.592-.7.917-1.045L7.125 8l.982-.982-1.883-1.883c.35-.322.7-.626 1.054-.908l1.81 1.81.982-.982-1.657-1.656c.411-.272.824-.516 1.24-.733l1.403 1.403.982-.981-1.034-1.035c1.093-.41 2.196-.642 3.286-.67 1.661-.05 2.94.429 3.492.668-.224.938-1.504 5.553-5.85 10.014-4.199 4.107-8.543 5.489-9.834 5.829-.22-.49-.759-1.872-.714-3.603.03-1.143.282-2.298.73-3.441m16.911-9.597l-.098-.181-.18-.1c-.079-.041-1.91-.994-4.492-.971C12.78.04 11.29.385 9.832 1.028c-1.77.779-3.502 2.008-5.155 3.66-1.639 1.64-2.866 3.37-3.649 5.143C.385 11.289.04 12.778.003 14.255c-.066 2.546.93 4.413.971 4.49l.098.18.18.099c.028.015.283.149.708.315l.002.008.013-.003c.74.286 1.991.657 3.498.657 1.565 0 3.143-.348 4.693-1.031 1.772-.78 3.503-2.007 5.156-3.661 1.64-1.638 2.866-3.368 3.65-5.142.642-1.457.987-2.947 1.025-4.424.064-2.547-.93-4.412-.972-4.49" mask="url(#kqjs8cscnb)"/>
	</symbol>

	<symbol id="emptyTeamLogo" viewBox="0 0 48 48" fill="currentColor">
        <path d="m37.986 0 7.116 7.073v23.9L28.036 48H19.13L2 30.974V7.073L9.135 0h28.85zm-.678 1.64H9.812l-6.17 6.118v22.534L19.809 46.36h7.55L43.46 30.293V7.758L37.308 1.64zm-1.364 3.317 4.182 4.166v20.43L26.608 43.042h-6.064L6.975 29.554V9.12l4.209-4.164h24.76zM35.265 6.6H11.86L8.618 9.807v19.065L21.22 41.398h4.71l12.554-12.526V9.805L35.265 6.6zm-.101 10.29v2.325L19.366 35.008l-1.162-1.163 16.96-16.956zM34.06 9.98l1.162 1.162L15.359 31l-1.161-1.16L34.06 9.978zm-5.68-.084L11.946 26.326v-2.322l14.112-14.11h2.325z"/>
    </symbol>

	<symbol id="time" viewBox="0 0 20 20" fill="currentColor">
        <path d="M12.88,0 L12.88,1.374 L10.462,1.374 L10.462,3.519 C11.784,3.629 13.016,4.034 14.088,4.695 L14.088,4.695 L15.621,2.679 L16.715,3.509 L15.19,5.517 C16.928,7.035 18.051,9.241 18.051,11.725 C18.051,16.287 14.338,20 9.775,20 C5.212,20 1.5,16.287 1.5,11.725 C1.5,7.397 4.851,3.874 9.088,3.519 L9.088,3.519 L9.088,1.374 L6.671,1.374 L6.671,0 L12.88,0 Z M9.775,4.823 C5.97,4.823 2.874,7.92 2.874,11.725 C2.874,15.53 5.97,18.626 9.775,18.626 C13.581,18.626 16.676,15.53 16.676,11.725 C16.676,7.92 13.581,4.823 9.775,4.823 Z M10.4595,6.2069 L10.4595,11.7239 L9.0935,11.7239 L9.0935,6.2069 L10.4595,6.2069 Z"/>
	</symbol>

	<symbol id="transfer" viewBox="0 0 10 12" stroke="currentColor" stroke-linecap="square" stroke-width="2">
	</symbol>

    <symbol id="attendance" viewBox="0 0 16 16" fill="currentColor">
        <path d="M14.906 14.907h-1.67v-1.06l-.96-.97-2.271-.567c.942-1.143 1.333-3.094.83-4.523-.217-.616-.583-1.1-1.065-1.431l-.019-.06c-.22-.885-.11-1.75.289-2.26.28-.358.709-.542 1.273-.542.777 0 1.292.346 1.532 1.028.366 1.04-.022 2.615-.8 3.24l-.204.164v.999l2.718.678.347.352v4.952zm-3.593 0H3.858v-.61l.428-.434 3.044-.759v-1.04l-.204-.164c-.901-.723-1.352-2.546-.93-3.75.284-.803.891-1.21 1.805-1.21.913 0 1.52.406 1.803 1.21.423 1.204-.029 3.026-.929 3.75l-.204.165v1.039l3.043.76.428.433v.61h-.83zm-10.22 0V9.955l.348-.352 2.718-.678v-.999l-.203-.164c-.778-.625-1.166-2.2-.8-3.24.24-.682.755-1.028 1.532-1.028.563 0 .992.184 1.273.543.397.509.509 1.374.289 2.257l-.019.063c-.482.33-.849.814-1.065 1.431-.504 1.429-.112 3.38.83 4.522l-2.271.567-.96.97v1.06H1.094zM6.966 1.5c.234-.27.583-.407 1.036-.407.456 0 .807.14 1.042.416.307.36.427.967.335 1.632-.074.075-.143.15-.2.222-.498.638-.705 1.553-.601 2.533-.185-.03-.376-.05-.576-.05-.201 0-.392.02-.578.05.104-.98-.103-1.895-.6-2.533-.059-.073-.13-.15-.205-.226-.09-.67.037-1.28.347-1.637zm8.156 7.118l-1.923-.481c.812-1.038 1.126-2.707.678-3.979-.393-1.116-1.327-1.756-2.563-1.756-.31 0-.581.04-.823.105-.037-.669-.241-1.269-.614-1.706C9.43.277 8.782 0 8.001 0c-.773 0-1.417.27-1.862.784-.38.438-.594 1.043-.633 1.722-.24-.064-.51-.104-.818-.104-1.236 0-2.17.64-2.564 1.756-.448 1.272-.134 2.941.68 3.979l-1.925.48L0 9.505V16h16V9.504l-.88-.886z" transform="translate(-24.000000, -1171.000000) translate(0.000000, 322.000000) translate(12.000000, 745.000000) translate(11.999840, 103.999840)"/>
	</symbol>

    <symbol id="liveStreamLogo" viewBox="0 0 38 14">
        <path fill="var(--color-primary-2)" d="M0 0H38V14H0z"/>
        <path fill="#FFFFFF" d="M5.91 10.105c.354 0 .65-.045.885-.136.236-.091.447-.222.635-.39.166-.155.296-.342.388-.563.093-.222.139-.446.139-.672 0-.362-.092-.667-.277-.914-.185-.248-.478-.433-.88-.555-.155-.047-.352-.098-.59-.154-.236-.056-.437-.106-.6-.15-.248-.068-.437-.175-.567-.321-.13-.146-.195-.342-.195-.59 0-.273.11-.494.332-.662.221-.168.511-.252.87-.252.318 0 .622.063.91.19.29.126.527.274.712.443h.058v-.926c-.247-.12-.516-.212-.806-.277-.29-.065-.598-.098-.924-.098-.57 0-1.04.16-1.406.479-.367.319-.551.714-.551 1.185 0 .227.033.427.1.6.066.173.16.323.279.451.122.13.263.236.422.316.159.081.338.148.539.2.224.057.41.102.558.136.149.034.313.077.493.13.25.07.432.178.546.323.115.146.172.335.172.567 0 .292-.109.527-.328.705-.219.178-.541.268-.969.268-.299 0-.61-.066-.933-.198-.323-.131-.612-.317-.867-.556H4v.968c.26.128.538.235.834.323.296.087.654.13 1.076.13zM11.08 10V4.871h1.953v-.687h-4.68v.687h1.953V10h.774zm3.512 0V7.687h.883L17.318 10h1.004l-2.07-2.531c.372-.138.666-.35.882-.637.217-.286.325-.643.325-1.07 0-.305-.06-.56-.178-.766-.119-.206-.28-.374-.483-.504-.203-.133-.417-.217-.642-.254-.225-.036-.505-.054-.838-.054h-1.5V10h.773zm.68-2.957h-.68V4.848h.766c.216 0 .397.015.543.045.146.03.273.081.383.154.125.083.217.19.277.322.06.132.09.282.09.451 0 .203-.027.38-.08.532-.053.15-.136.28-.248.39-.125.123-.276.203-.453.242-.177.04-.377.059-.598.059zM22.62 10v-.688h-2.864v-2.16h2.668v-.687h-2.668V4.87h2.864v-.687h-3.637V10h3.637zm1.203 0l.528-1.625h2.222L27.101 10h.816l-1.96-5.816h-.954L23.043 10h.78zm2.536-2.285h-1.793l.894-2.742.899 2.742zM29.39 10V4.988l1.504 3.41h.468l1.516-3.41V10h.773V4.184h-1.074l-1.402 3.238-1.453-3.238h-1.055V10h.723z"/>
        <path fill="#FFFFFF" d="M5.91 10.105c.354 0 .65-.045.885-.136.236-.091.447-.222.635-.39.166-.155.296-.342.388-.563.093-.222.139-.446.139-.672 0-.362-.092-.667-.277-.914-.185-.248-.478-.433-.88-.555-.155-.047-.352-.098-.59-.154-.236-.056-.437-.106-.6-.15-.248-.068-.437-.175-.567-.321-.13-.146-.195-.342-.195-.59 0-.273.11-.494.332-.662.221-.168.511-.252.87-.252.318 0 .622.063.91.19.29.126.527.274.712.443h.058v-.926c-.247-.12-.516-.212-.806-.277-.29-.065-.598-.098-.924-.098-.57 0-1.04.16-1.406.479-.367.319-.551.714-.551 1.185 0 .227.033.427.1.6.066.173.16.323.279.451.122.13.263.236.422.316.159.081.338.148.539.2.224.057.41.102.558.136.149.034.313.077.493.13.25.07.432.178.546.323.115.146.172.335.172.567 0 .292-.109.527-.328.705-.219.178-.541.268-.969.268-.299 0-.61-.066-.933-.198-.323-.131-.612-.317-.867-.556H4v.968c.26.128.538.235.834.323.296.087.654.13 1.076.13zM11.08 10V4.871h1.953v-.687h-4.68v.687h1.953V10h.774zm3.512 0V7.687h.883L17.318 10h1.004l-2.07-2.531c.372-.138.666-.35.882-.637.217-.286.325-.643.325-1.07 0-.305-.06-.56-.178-.766-.119-.206-.28-.374-.483-.504-.203-.133-.417-.217-.642-.254-.225-.036-.505-.054-.838-.054h-1.5V10h.773zm.68-2.957h-.68V4.848h.766c.216 0 .397.015.543.045.146.03.273.081.383.154.125.083.217.19.277.322.06.132.09.282.09.451 0 .203-.027.38-.08.532-.053.15-.136.28-.248.39-.125.123-.276.203-.453.242-.177.04-.377.059-.598.059zM22.62 10v-.688h-2.864v-2.16h2.668v-.687h-2.668V4.87h2.864v-.687h-3.637V10h3.637zm1.203 0l.528-1.625h2.222L27.101 10h.816l-1.96-5.816h-.954L23.043 10h.78zm2.536-2.285h-1.793l.894-2.742.899 2.742zM29.39 10V4.988l1.504 3.41h.468l1.516-3.41V10h.773V4.184h-1.074l-1.402 3.238-1.453-3.238h-1.055V10h.723z"/>
    </symbol>

    <symbol id="venue" viewBox="0 0 16 16" fill="currentColor">
        <path d="M1.977 1.92L0 3.896v8.24l1.982 1.92h12.043L16 12.078V3.896L14.024 1.92H1.977zm6.57 1.093h4.113L11.326 4.68H8.547V3.013zm-5.206 0h4.113V4.68H4.675L3.341 3.013zm8.98 2.173l1.522-1.901.792.792-1.901 1.521-.412-.412zM1.367 4.076l.792-.791 1.521 1.901-.412.412-1.9-1.521zM13.24 9.382V6.594l1.666-1.334v5.454L13.24 9.381zM1.094 5.26l1.667 1.334V9.38l-1.667 1.333V5.26zm2.76 4.157v-2.86l.784-.783h6.724l.784.784v2.859l-.784.785H4.638l-.784-.785zm8.468 1.371l.412-.412 1.901 1.52-.793.794-1.52-1.902zM1.344 11.914l1.923-1.538.412.412-1.527 1.91-.808-.784zm7.203-.62h2.779l1.334 1.668H8.547v-1.668zm-3.872 0h2.779v1.668H3.34l1.334-1.668z" transform="translate(-24.000000, -1141.000000) translate(0.000000, 322.000000) translate(12.000000, 745.000000) translate(12.000000, 74.000000) translate(0.000000, 0.000000)"/>
    </symbol>

    <svg xmlns="http://www.w3.org/2000/svg" xmlns:xlink="http://www.w3.org/1999/xlink" version="1.1" id="soccerJerseyHome" viewBox="0 0 38 30">
        <use xlink:href="#soccerJersey" fill="#0f2d37"/>
    </svg>
    <svg xmlns="http://www.w3.org/2000/svg" xmlns:xlink="http://www.w3.org/1999/xlink" version="1.1" id="soccerJerseyHomeDark" viewBox="0 0 38 30">
        <use xlink:href="#soccerJersey" fill="#eeeeee"/>
    </svg>
    <svg xmlns="http://www.w3.org/2000/svg" xmlns:xlink="http://www.w3.org/1999/xlink" version="1.1" id="soccerJerseyAway" viewBox="0 0 38 30">
        <use xlink:href="#soccerJersey" fill="#ff0046"/>
    </svg>
    <svg xmlns="http://www.w3.org/2000/svg" xmlns:xlink="http://www.w3.org/1999/xlink" version="1.1" id="soccerJerseyAwayDark" viewBox="0 0 38 30">
        <use xlink:href="#soccerJersey" fill="#c80037"/>
    </svg>
    <svg xmlns="http://www.w3.org/2000/svg" xmlns:xlink="http://www.w3.org/1999/xlink" version="1.1" id="soccerJerseyGoalkeeper" viewBox="0 0 38 30">
        <use xlink:href="#soccerJersey" fill="#0067c3"/>
    </svg>
    <svg xmlns="http://www.w3.org/2000/svg" xmlns:xlink="http://www.w3.org/1999/xlink" version="1.1" id="hockeyJerseyHome" viewBox="0 0 38 31">
        <use xlink:href="#hockeyJersey" fill="#0f2d37"/>
    </svg>
    <svg xmlns="http://www.w3.org/2000/svg" xmlns:xlink="http://www.w3.org/1999/xlink" version="1.1" id="hockeyJerseyHomeDark" viewBox="0 0 38 31">
        <use xlink:href="#hockeyJersey" fill="#eeeeee"/>
    </svg>
    <svg xmlns="http://www.w3.org/2000/svg" xmlns:xlink="http://www.w3.org/1999/xlink" version="1.1" id="hockeyJerseyAway" viewBox="0 0 38 31">
        <use xlink:href="#hockeyJersey" fill="#ff0046"/>
    </svg>
    <svg xmlns="http://www.w3.org/2000/svg" xmlns:xlink="http://www.w3.org/1999/xlink" version="1.1" id="hockeyJerseyAwayDark" viewBox="0 0 38 31">
        <use xlink:href="#hockeyJersey" fill="#c80037"/>
    </svg>
    <svg xmlns="http://www.w3.org/2000/svg" xmlns:xlink="http://www.w3.org/1999/xlink" version="1.1" id="hockeyJerseyGoalkeeper" viewBox="0 0 38 31">
        <use xlink:href="#hockeyJersey" fill="#0067c3"/>
    </svg>
    <svg xmlns="http://www.w3.org/2000/svg" xmlns:xlink="http://www.w3.org/1999/xlink" version="1.1" id="basketballJerseyHome" viewBox="0 0 22 30">
        <use xlink:href="#basketballJersey" fill="#0f2d37"/>
    </svg>
    <svg xmlns="http://www.w3.org/2000/svg" xmlns:xlink="http://www.w3.org/1999/xlink" version="1.1" id="basketballJerseyHomeDark" viewBox="0 0 22 30">
        <use xlink:href="#basketballJersey" fill="#eeeeee"/>
    </svg>
    <svg xmlns="http://www.w3.org/2000/svg" xmlns:xlink="http://www.w3.org/1999/xlink" version="1.1" id="basketballJerseyAway" viewBox="0 0 22 30">
        <use xlink:href="#basketballJersey" fill="#ff0046"/>
    </svg>
    <svg xmlns="http://www.w3.org/2000/svg" xmlns:xlink="http://www.w3.org/1999/xlink" version="1.1" id="basketballJerseyAwayDark" viewBox="0 0 22 30">
        <use xlink:href="#basketballJersey" fill="#c80037"/>
    </svg>
    <svg xmlns="http://www.w3.org/2000/svg" xmlns:xlink="http://www.w3.org/1999/xlink" version="1.1" id="soccerFieldView" viewBox="0 0 592 364">
        <use xlink:href="#soccerField"/>
    </svg>
    <svg xmlns="http://www.w3.org/2000/svg" xmlns:xlink="http://www.w3.org/1999/xlink" version="1.1" id="hockeyFieldView" viewBox="0 0 592 365">
        <use xlink:href="#hockeyField"/>
    </svg>
    <svg xmlns="http://www.w3.org/2000/svg" xmlns:xlink="http://www.w3.org/1999/xlink" version="1.1" id="basketballFieldView" viewBox="0 0 592 365">
        <use xlink:href="#basketballField"/>
    </svg>
    <svg xmlns="http://www.w3.org/2000/svg" xmlns:xlink="http://www.w3.org/1999/xlink" version="1.1" id="reportPlaceholderView" viewBox="0 0 40 40">
        <use xlink:href="#reportPlaceholder"/>
    </svg>
    <svg xmlns="http://www.w3.org/2000/svg" xmlns:xlink="http://www.w3.org/1999/xlink" version="1.1" id="streamIconView" viewBox="0 0 16 16">
        <use xlink:href="#streamIcon"/>
    </svg>
    <svg xmlns="http://www.w3.org/2000/svg" xmlns:xlink="http://www.w3.org/1999/xlink" version="1.1" id="arrowSlimView" viewBox="0 0 14 14">
        <use xlink:href="#arrowSlim"/>
    </svg>
</svg>